<svg width="102" height="21" viewBox="0 0 102 21" fill="none" xmlns="http://www.w3.org/2000/svg">
<g id="Vector">
<path d="M75.0804 12.8435C74.7562 12.8435 74.4298 12.7735 74.1238 12.6292C73.3105 12.2469 72.7892 11.4152 72.7892 10.4997C72.7892 7.57016 70.4588 5.18691 67.5942 5.18691C66.4843 5.18691 65.4259 5.53934 64.5343 6.20591C64.3347 6.3549 64.144 6.52005 63.9673 6.69656L60.7669 3.34159C61.0986 3.0101 61.4567 2.70075 61.8306 2.42132C63.5127 1.16417 65.5061 0.5 67.5942 0.5C71.4909 0.5 74.8627 2.84316 76.4331 6.22446L77.1492 5.59619L80.1343 9.15281L76.5735 12.2786C76.1499 12.6502 75.6181 12.8435 75.0804 12.8435Z" fill="#222529"/>
<path d="M67.6744 20.5C63.7777 20.5 60.4059 18.1568 58.8355 14.7755L58.1194 15.4038L55.1343 11.8472L58.6951 8.72139C59.3744 8.12483 60.331 7.98781 61.1443 8.37016C61.9575 8.75251 62.4789 9.58422 62.4789 10.4997C62.4789 13.4292 64.8092 15.8125 67.6738 15.8125C68.7837 15.8125 69.8421 15.4601 70.7338 14.7935C70.9339 14.6445 71.1246 14.4794 71.3007 14.3034L74.5011 17.6584C74.1694 17.9893 73.8119 18.2987 73.4375 18.5781C71.7565 19.8358 69.7631 20.5 67.6744 20.5Z" fill="#222529"/>
<path d="M13.14 20.156V16.376L12.78 15.548V8.78C12.78 7.58 12.408 6.644 11.664 5.972C10.944 5.3 9.828 4.964 8.316 4.964C7.284 4.964 6.264 5.132 5.256 5.468C4.272 5.78 3.432 6.212 2.736 6.764L0.72 2.84C1.776 2.096 3.048 1.52 4.536 1.112C6.024 0.703999 7.536 0.5 9.072 0.5C12.024 0.5 14.316 1.196 15.948 2.588C17.58 3.98 18.396 6.152 18.396 9.104V20.156H13.14ZM7.236 20.444C5.724 20.444 4.428 20.192 3.348 19.688C2.268 19.16 1.44 18.452 0.864 17.564C0.288 16.676 0 15.68 0 14.576C0 13.424 0.276 12.416 0.828 11.552C1.404 10.688 2.304 10.016 3.528 9.536C4.752 9.032 6.348 8.78 8.316 8.78H13.464V12.056H8.928C7.608 12.056 6.696 12.272 6.192 12.704C5.712 13.136 5.472 13.676 5.472 14.324C5.472 15.044 5.748 15.62 6.3 16.052C6.876 16.46 7.656 16.664 8.64 16.664C9.576 16.664 10.416 16.448 11.16 16.016C11.904 15.56 12.444 14.9 12.78 14.036L13.644 16.628C13.236 17.876 12.492 18.824 11.412 19.472C10.332 20.12 8.94 20.444 7.236 20.444Z" fill="#222529"/>
<path d="M23.4788 20.156V0.787998H29.0948V20.156H23.4788Z" fill="#222529"/>
<path d="M46.0789 0.5C47.6149 0.5 48.9829 0.812 50.1829 1.436C51.4069 2.036 52.3669 2.972 53.0629 4.244C53.7589 5.492 54.1069 7.1 54.1069 9.068V20.156H48.4909V9.932C48.4909 8.372 48.1429 7.22 47.4469 6.476C46.7749 5.732 45.8149 5.36 44.5669 5.36C43.6789 5.36 42.8749 5.552 42.1549 5.936C41.4589 6.296 40.9069 6.86 40.4989 7.628C40.1149 8.396 39.9229 9.38 39.9229 10.58V20.156H34.3069V0.787998H39.6709V6.152L38.6629 4.532C39.3589 3.236 40.3549 2.24 41.6509 1.544C42.9469 0.847999 44.4229 0.5 46.0789 0.5Z" fill="#222529"/>
<path d="M79.8823 20.156L88.5583 8.78L88.4503 11.876L80.1343 0.787998H86.4343L91.6903 8.024L89.3143 8.096L94.7503 0.787998H100.726L92.3743 11.768V8.744L101.014 20.156H94.6423L89.1343 12.452L91.4743 12.776L86.0023 20.156H79.8823Z" fill="#222529"/>
</g>
</svg>
