<svg width="40" height="54" viewBox="0 0 40 54" fill="none" xmlns="http://www.w3.org/2000/svg">
<rect width="40" height="54" rx="5" fill="white"/>
<path d="M26.2857 33.2856C26.2857 33.5887 26.1652 33.8794 25.9509 34.0937C25.7366 34.308 25.4459 34.4284 25.1428 34.4284H14.8571C14.554 34.4284 14.2633 34.308 14.049 34.0937C13.8346 33.8794 13.7142 33.5887 13.7142 33.2856V20.7141C13.7142 20.411 13.8346 20.1204 14.049 19.906C14.2633 19.6917 14.554 19.5713 14.8571 19.5713H22.2857L26.2857 23.5713V33.2856Z" stroke="black" stroke-width="1.14286" stroke-linecap="round" stroke-linejoin="round"/>
<path d="M18.0566 23.0186C16.578 23.4567 22.743 30.8857 23.4004 29.1857C24.0579 27.4857 15.3027 29.6771 16.7447 30.8857C18.1866 32.0941 19.5352 22.5805 18.0566 23.0186Z" stroke="black" stroke-width="1.14286" stroke-linecap="round" stroke-linejoin="round"/>
</svg>
