<svg width="16" height="17" viewBox="0 0 16 17" fill="none" xmlns="http://www.w3.org/2000/svg">
<g clip-path="url(#clip0_1372_2301)">
<path d="M14.2857 1.07129H1.71427C1.41116 1.07129 1.12047 1.1917 0.906146 1.40602C0.691819 1.62035 0.571411 1.91104 0.571411 2.21415V11.9284C0.571411 12.2315 0.691819 12.5222 0.906146 12.7366C1.12047 12.9509 1.41116 13.0713 1.71427 13.0713H3.99998V15.9284L7.5657 13.0713H14.2857C14.5888 13.0713 14.8795 12.9509 15.0938 12.7366C15.3081 12.5222 15.4286 12.2315 15.4286 11.9284V2.21415C15.4286 1.91104 15.3081 1.62035 15.0938 1.40602C14.8795 1.1917 14.5888 1.07129 14.2857 1.07129Z" stroke="#F8F8F8" stroke-width="1.14286" stroke-linecap="round" stroke-linejoin="round"/>
<path d="M6.28564 5.64251C6.28564 5.30346 6.38619 4.97202 6.57455 4.6901C6.76292 4.40819 7.03066 4.18847 7.3439 4.05872C7.65715 3.92897 8.00183 3.89502 8.33437 3.96116C8.66691 4.02731 8.97237 4.19058 9.21211 4.43033C9.45186 4.67007 9.61513 4.97553 9.68128 5.30807C9.74742 5.64061 9.71347 5.98529 9.58372 6.29854C9.45397 6.61178 9.23425 6.87952 8.95234 7.06789C8.67042 7.25625 8.33898 7.3568 7.99993 7.3568V7.92822" stroke="#F8F8F8" stroke-width="1.14286" stroke-linecap="round" stroke-linejoin="round"/>
<path d="M7.84123 10.2622C7.88719 10.2315 7.94104 10.2147 7.99625 10.214C8.07234 10.216 8.14484 10.2471 8.19872 10.301C8.25261 10.3549 8.2837 10.4273 8.28566 10.5034C8.28494 10.5586 8.26824 10.6125 8.23753 10.6585L8.71265 10.9759L8.23753 10.6585C8.20613 10.7054 8.16151 10.7421 8.1093 10.7637L8.31721 11.2656L8.1093 10.7637C8.05709 10.7853 7.99965 10.791 7.94423 10.7799C7.8888 10.7689 7.83789 10.7417 7.79794 10.7018C7.75798 10.6618 7.73077 10.6109 7.71974 10.5555C7.70872 10.5 7.71437 10.4426 7.736 10.3904C7.75762 10.3382 7.79425 10.2936 7.84123 10.2622Z" fill="#F8F8F8" stroke="#F8F8F8" stroke-width="1.14286"/>
</g>
<defs>
<clipPath id="clip0_1372_2301">
<rect width="16" height="16" fill="white" transform="translate(0 0.5)"/>
</clipPath>
</defs>
</svg>
