<svg width="16" height="16" viewBox="0 0 16 16" fill="none" xmlns="http://www.w3.org/2000/svg">
<g clip-path="url(#clip0_698_4701)">
<path d="M12.5715 10.2857L14.8572 9.71423L15.4287 11.9999" stroke="#222529" stroke-width="1.14286" stroke-linecap="round" stroke-linejoin="round"/>
<path d="M14.8573 9.71423C14.3497 11.1526 13.4276 12.4086 12.2074 13.3238C10.9871 14.239 9.52317 14.7725 8.00016 14.8571C6.59229 14.8573 5.21846 14.4242 4.06528 13.6166C2.9121 12.809 2.03547 11.666 1.55444 10.3428" stroke="#222529" stroke-width="1.14286" stroke-linecap="round" stroke-linejoin="round"/>
<path d="M3.42868 5.71429L1.14296 6.28571L0.571533 4" stroke="#222529" stroke-width="1.14286" stroke-linecap="round" stroke-linejoin="round"/>
<path d="M1.14307 6.28568C2.10307 3.65711 5.05164 1.14282 8.00021 1.14282C9.41494 1.1468 10.7938 1.58826 11.9478 2.40668C13.1018 3.2251 13.9744 4.38042 14.4459 5.71425" stroke="#222529" stroke-width="1.14286" stroke-linecap="round" stroke-linejoin="round"/>
</g>
<defs>
<clipPath id="clip0_698_4701">
<rect width="16" height="16" fill="white"/>
</clipPath>
</defs>
</svg>
