<svg width="16" height="16" viewBox="0 0 16 16" fill="none" xmlns="http://www.w3.org/2000/svg">
<g id="16 px" clip-path="url(#clip0_1161_1686)">
<g id="Group">
<path id="Vector" d="M8 15.4285C6.32599 13.5855 4.05577 12.3917 1.58858 12.0571C1.30775 12.026 1.0484 11.892 0.860557 11.681C0.67272 11.4699 0.569718 11.1968 0.571432 10.9143V1.71425C0.571421 1.54918 0.607171 1.38606 0.676222 1.23612C0.745273 1.08618 0.845986 0.95298 0.971432 0.845681C1.09467 0.740334 1.23891 0.662412 1.39457 0.617092C1.55024 0.571772 1.71376 0.560091 1.87429 0.582824C4.23348 0.974375 6.39168 2.15011 8 3.91997V15.4285Z" stroke="#222529" stroke-width="1.14286" stroke-linecap="round" stroke-linejoin="round"/>
<path id="Vector_2" d="M8 15.4285C9.67401 13.5855 11.9442 12.3917 14.4114 12.0571C14.6923 12.026 14.9516 11.892 15.1394 11.681C15.3273 11.4699 15.4303 11.1968 15.4286 10.9143V1.71425C15.4286 1.54918 15.3928 1.38606 15.3238 1.23612C15.2547 1.08618 15.154 0.95298 15.0286 0.845681C14.9053 0.740334 14.7611 0.662412 14.6054 0.617092C14.4498 0.571772 14.2862 0.560091 14.1257 0.582824C11.7665 0.974375 9.60832 2.15011 8 3.91997V15.4285Z" stroke="#222529" stroke-width="1.14286" stroke-linecap="round" stroke-linejoin="round"/>
</g>
</g>
<defs>
<clipPath id="clip0_1161_1686">
<rect width="16" height="16" fill="white"/>
</clipPath>
</defs>
</svg>
