<svg width="16" height="16" viewBox="0 0 16 16" fill="none" xmlns="http://www.w3.org/2000/svg">
<g id="16 px" clip-path="url(#clip0_1302_6204)">
<g id="Group">
<path id="Vector" d="M10.8572 12.0001V14.2858C10.8572 14.5889 10.7368 14.8796 10.5225 15.0939C10.3082 15.3083 10.0175 15.4287 9.71439 15.4287H1.71439C1.41129 15.4287 1.1206 15.3083 0.906268 15.0939C0.691941 14.8796 0.571533 14.5889 0.571533 14.2858V1.71439C0.571533 1.41129 0.691941 1.1206 0.906268 0.906268C1.1206 0.691941 1.41129 0.571533 1.71439 0.571533H9.71439C10.0175 0.571533 10.3082 0.691941 10.5225 0.906268C10.7368 1.1206 10.8572 1.41129 10.8572 1.71439V4.0001" stroke="#222529" stroke-width="1.14286" stroke-linecap="round" stroke-linejoin="round"/>
<path id="Vector_2" d="M7.42871 8H15.4287" stroke="#222529" stroke-width="1.14286" stroke-linecap="round" stroke-linejoin="round"/>
<path id="Vector_3" d="M13.1431 5.71436L15.4288 8.00007L13.1431 10.2858" stroke="#222529" stroke-width="1.14286" stroke-linecap="round" stroke-linejoin="round"/>
</g>
</g>
<defs>
<clipPath id="clip0_1302_6204">
<rect width="16" height="16" fill="white"/>
</clipPath>
</defs>
</svg>
