<svg width="16" height="16" viewBox="0 0 16 16" fill="none" xmlns="http://www.w3.org/2000/svg">
<g clip-path="url(#clip0_639_5400)">
<path d="M14.857 7.78283L8.05702 14.64C7.79318 14.9088 7.4784 15.1224 7.13107 15.2681C6.78375 15.4139 6.41084 15.489 6.03417 15.489C5.65749 15.489 5.28459 15.4139 4.93726 15.2681C4.58993 15.1224 4.27515 14.9088 4.01131 14.64L1.97702 12.5714C1.44448 12.0305 1.146 11.3019 1.146 10.5428C1.146 9.78378 1.44448 9.05516 1.97702 8.51426L9.22274 1.24569C9.43522 1.03145 9.68803 0.86141 9.96656 0.745367C10.2451 0.629325 10.5439 0.56958 10.8456 0.56958C11.1473 0.56958 11.4461 0.629325 11.7246 0.745367C12.0032 0.86141 12.256 1.03145 12.4685 1.24569L13.2799 2.05712C13.4941 2.26961 13.6642 2.52241 13.7802 2.80094C13.8962 3.07948 13.956 3.37824 13.956 3.67998C13.956 3.98172 13.8962 4.28047 13.7802 4.55901C13.6642 4.83754 13.4941 5.09035 13.2799 5.30283L6.85702 11.7485C6.75078 11.8557 6.62438 11.9407 6.48511 11.9987C6.34584 12.0567 6.19646 12.0866 6.04559 12.0866C5.89472 12.0866 5.74535 12.0567 5.60608 11.9987C5.46681 11.9407 5.34041 11.8557 5.23417 11.7485L4.83417 11.3371C4.72705 11.2309 4.64202 11.1045 4.584 10.9652C4.52598 10.8259 4.49611 10.6766 4.49611 10.5257C4.49611 10.3748 4.52598 10.2254 4.584 10.0862C4.64202 9.94691 4.72705 9.82051 4.83417 9.71426L9.14274 5.43998" stroke="black" stroke-width="1.14286" stroke-linecap="round" stroke-linejoin="round"/>
</g>
<defs>
<clipPath id="clip0_639_5400">
<rect width="16" height="16" fill="white"/>
</clipPath>
</defs>
</svg>
