<svg width="16" height="16" viewBox="0 0 16 16" fill="none" xmlns="http://www.w3.org/2000/svg">
<g id="16 px" clip-path="url(#clip0_1161_5715)">
<g id="Group">
<path id="Vector" d="M8.57164 10.2854L5.14307 10.9025L5.7145 7.42822L12.2631 0.902508C12.3693 0.79539 12.4957 0.710368 12.635 0.652347C12.7742 0.594325 12.9236 0.564453 13.0745 0.564453C13.2254 0.564453 13.3747 0.594325 13.514 0.652347C13.6533 0.710368 13.7797 0.79539 13.8859 0.902508L15.0974 2.11394C15.2045 2.22018 15.2895 2.34658 15.3475 2.48585C15.4055 2.62512 15.4354 2.77449 15.4354 2.92537C15.4354 3.07624 15.4055 3.22561 15.3475 3.36488C15.2895 3.50415 15.2045 3.63055 15.0974 3.73679L8.57164 10.2854Z" stroke="#00CF91" stroke-width="1.14286" stroke-linecap="round" stroke-linejoin="round"/>
<path id="Vector_2" d="M13.7144 10.8566V14.2852C13.7144 14.5883 13.594 14.879 13.3797 15.0933C13.1653 15.3076 12.8746 15.428 12.5715 15.428H1.71439C1.41129 15.428 1.1206 15.3076 0.906268 15.0933C0.691941 14.879 0.571533 14.5883 0.571533 14.2852V3.42801C0.571533 3.12491 0.691941 2.83422 0.906268 2.61989C1.1206 2.40556 1.41129 2.28516 1.71439 2.28516H5.14296" stroke="#00CF91" stroke-width="1.14286" stroke-linecap="round" stroke-linejoin="round"/>
</g>
</g>
<defs>
<clipPath id="clip0_1161_5715">
<rect width="16" height="16" fill="white"/>
</clipPath>
</defs>
</svg>
