<svg width="16" height="17" viewBox="0 0 16 17" fill="none" xmlns="http://www.w3.org/2000/svg">
<g id="16 px" clip-path="url(#clip0_1161_1671)">
<path id="Vector" d="M4.85716 1.07153L2.28573 7.1401C2.25016 7.22668 2.2364 7.32066 2.24566 7.41379C2.25492 7.50692 2.28692 7.59635 2.33883 7.67423C2.39075 7.7521 2.46099 7.81603 2.5434 7.8604C2.62581 7.90476 2.71785 7.92821 2.81144 7.92868H6.00001L3.7143 15.9287L13.5314 6.62582C13.613 6.54724 13.6693 6.44621 13.6934 6.33554C13.7174 6.22487 13.708 6.10956 13.6663 6.00424C13.6247 5.89893 13.5527 5.80836 13.4595 5.74404C13.3663 5.67971 13.2561 5.64453 13.1429 5.64296H8.85716L11.1429 1.07153H4.85716Z" stroke="#222529" stroke-width="1.14286" stroke-linecap="round" stroke-linejoin="round"/>
</g>
<defs>
<clipPath id="clip0_1161_1671">
<rect width="16" height="16" fill="white" transform="translate(0 0.5)"/>
</clipPath>
</defs>
</svg>
