<svg width="12" height="12" viewBox="0 0 12 12" fill="none" xmlns="http://www.w3.org/2000/svg">
<path fill-rule="evenodd" clip-rule="evenodd" d="M10.5 3.375V10.5C10.5 11.3284 9.82843 12 9 12H8.25V11.25H9C9.41421 11.25 9.75 10.9142 9.75 10.5V3.375H8.25C7.62868 3.375 7.125 2.87132 7.125 2.25V0.75H3C2.58579 0.75 2.25 1.08579 2.25 1.5V8.25H1.5V1.5C1.5 0.671572 2.17157 0 3 0H7.125L10.5 3.375ZM1.19971 8.8875H0V11.8868H0.593262V10.8804H1.19531C1.41064 10.8804 1.59375 10.8372 1.74463 10.7508C1.89697 10.6629 2.0127 10.5442 2.0918 10.3948C2.17236 10.2439 2.21265 10.0748 2.21265 9.88726C2.21265 9.69976 2.1731 9.53057 2.09399 9.37969C2.01489 9.22881 1.8999 9.10943 1.74902 9.02154C1.59961 8.93218 1.4165 8.8875 1.19971 8.8875ZM1.6084 9.88726C1.6084 9.99859 1.58716 10.0938 1.54468 10.1729C1.50366 10.2505 1.44434 10.3106 1.3667 10.3531C1.28906 10.3941 1.19531 10.4146 1.08545 10.4146H0.591064V9.35992H1.08545C1.24951 9.35992 1.37769 9.40533 1.46997 9.49615C1.56226 9.58697 1.6084 9.71734 1.6084 9.88726ZM2.52158 8.8875V11.8868H3.61582C3.91758 11.8868 4.16733 11.8274 4.36509 11.7088C4.56431 11.5901 4.71299 11.418 4.81113 11.1924C4.90928 10.9669 4.95835 10.6959 4.95835 10.3794C4.95835 10.0645 4.90928 9.79571 4.81113 9.57305C4.71445 9.3504 4.56724 9.18047 4.36948 9.06329C4.17173 8.9461 3.92051 8.8875 3.61582 8.8875H2.52158ZM3.11484 9.3709H3.53672C3.72275 9.3709 3.8751 9.40899 3.99375 9.48516C4.11387 9.56133 4.20249 9.67486 4.25962 9.82574C4.31821 9.97662 4.34751 10.1648 4.34751 10.3904C4.34751 10.5604 4.33066 10.7083 4.29697 10.8343C4.26475 10.9603 4.21567 11.0657 4.14976 11.1507C4.0853 11.2342 4.00181 11.2972 3.89927 11.3397C3.79673 11.3807 3.67588 11.4012 3.53672 11.4012H3.11484V9.3709ZM5.92207 10.6937V11.8868H5.32881V8.8875H7.24043V9.37749H5.92207V10.2147H7.12617V10.6937H5.92207Z" fill="#222529"/>
</svg>
