<svg width="25" height="24" viewBox="0 0 25 24" fill="none" xmlns="http://www.w3.org/2000/svg">
<path d="M19.3523 12C19.3534 13.6517 18.7716 15.2508 17.7093 16.5156C16.647 17.7804 15.1724 18.6298 13.5453 18.914C11.9182 19.1982 10.243 18.8991 8.81487 18.0694C7.38669 17.2396 6.29716 15.9324 5.73822 14.3782L1.72363 17.5898C2.97195 19.9628 4.97935 21.849 7.42531 22.9474C9.87127 24.0458 12.6147 24.293 15.2176 23.6495C17.8205 23.006 20.1328 21.5089 21.7851 19.3973C23.4375 17.2856 24.3347 14.6813 24.3334 12" fill="#00AC47"/>
<path d="M19.3525 12C19.3516 13.1167 19.0839 14.217 18.5717 15.2092C18.0594 16.2015 17.3175 17.057 16.4077 17.7045L20.3767 20.8796C21.6212 19.7591 22.6165 18.3897 23.2982 16.86C23.9798 15.3304 24.3326 13.6746 24.3337 12" fill="#4285F4"/>
<path d="M5.3146 12C5.31634 11.1886 5.45968 10.3838 5.73818 9.62179L1.72359 6.41016C0.810761 8.13197 0.333496 10.0511 0.333496 12C0.333496 13.9488 0.810761 15.8679 1.72359 17.5898L5.73818 14.3781C5.45968 13.6161 5.31634 12.8113 5.3146 12Z" fill="#FFBA00"/>
<path d="M12.3335 4.98112C13.8186 4.98153 15.2649 5.45614 16.4615 6.3358L20.1384 2.90399C18.7735 1.72715 17.1604 0.87375 15.4195 0.407484C13.6787 -0.0587812 11.855 -0.125874 10.0845 0.211213C8.31412 0.5483 6.64268 1.28086 5.19496 2.35423C3.74723 3.4276 2.56061 4.81406 1.72363 6.41015L5.73823 9.62179C6.22784 8.26455 7.12353 7.091 8.30354 6.2607C9.48356 5.4304 10.8906 4.98363 12.3335 4.98112Z" fill="#EA4435"/>
<path d="M24.3332 11.0941V11.9998L22.2955 15.1696H12.7861V10.1885H23.4276C23.6678 10.1885 23.8981 10.2839 24.068 10.4537C24.2378 10.6236 24.3332 10.8539 24.3332 11.0941Z" fill="#4285F4"/>
</svg>
