<svg width="16" height="16" viewBox="0 0 16 16" fill="none" xmlns="http://www.w3.org/2000/svg">
<g id="16 px" clip-path="url(#clip0_1302_6218)">
<g id="Group">
<path id="Vector" d="M1.7143 6.85718H2.85716C3.00871 6.85718 3.15405 6.91738 3.26122 7.02455C3.36838 7.13171 3.42858 7.27705 3.42858 7.42861V10.2857C3.42858 10.4373 3.36838 10.5826 3.26122 10.6898C3.15405 10.797 3.00871 10.8572 2.85716 10.8572H1.7143C1.41119 10.8572 1.1205 10.7368 0.906177 10.5224C0.691849 10.3081 0.571442 10.0174 0.571442 9.71432V8.00003C0.571442 7.69693 0.691849 7.40624 0.906177 7.19191C1.1205 6.97759 1.41119 6.85718 1.7143 6.85718Z" stroke="#222529" stroke-width="1.14286" stroke-linecap="round" stroke-linejoin="round"/>
<path id="Vector_2" d="M14.2857 10.8572H13.1429C12.9913 10.8572 12.846 10.797 12.7388 10.6898C12.6316 10.5826 12.5714 10.4373 12.5714 10.2857V7.42861C12.5714 7.27705 12.6316 7.13171 12.7388 7.02454C12.846 6.91738 12.9913 6.85718 13.1429 6.85718H14.2857C14.5888 6.85718 14.8795 6.97759 15.0939 7.19191C15.3082 7.40624 15.4286 7.69693 15.4286 8.00003V9.71432C15.4286 10.0174 15.3082 10.3081 15.0939 10.5224C14.8795 10.7368 14.5888 10.8572 14.2857 10.8572Z" stroke="#222529" stroke-width="1.14286" stroke-linecap="round" stroke-linejoin="round"/>
<path id="Vector_3" d="M10.8571 14C11.4634 14 12.0447 13.7592 12.4734 13.3306C12.902 12.9019 13.1429 12.3205 13.1429 11.7143V10.8572" stroke="#222529" stroke-width="1.14286" stroke-linecap="round" stroke-linejoin="round"/>
<path id="Vector_4" d="M9.42859 12.5715C9.80747 12.5715 10.1708 12.722 10.4387 12.99C10.7067 13.2579 10.8572 13.6212 10.8572 14.0001C10.8572 14.379 10.7067 14.7423 10.4387 15.0103C10.1708 15.2782 9.80747 15.4287 9.42859 15.4287H7.71431C7.33543 15.4287 6.97206 15.2782 6.70415 15.0103C6.43625 14.7423 6.28574 14.379 6.28574 14.0001C6.28574 13.6212 6.43625 13.2579 6.70415 12.99C6.97206 12.722 7.33543 12.5715 7.71431 12.5715H9.42859Z" stroke="#222529" stroke-width="1.14286" stroke-linecap="round" stroke-linejoin="round"/>
<path id="Vector_5" d="M2.85715 6.85725V5.71439C2.85715 4.35042 3.39898 3.04231 4.36346 2.07784C5.32793 1.11337 6.63603 0.571533 8 0.571533C9.36398 0.571533 10.6721 1.11337 11.6366 2.07784C12.601 3.04231 13.1429 4.35042 13.1429 5.71439V6.85725" stroke="#222529" stroke-width="1.14286" stroke-linecap="round" stroke-linejoin="round"/>
<path id="Vector_6" d="M6.28574 4.57153V6.28582" stroke="#222529" stroke-width="1.14286" stroke-linecap="round" stroke-linejoin="round"/>
<path id="Vector_7" d="M9.71429 4.57153V6.28582" stroke="#222529" stroke-width="1.14286" stroke-linecap="round" stroke-linejoin="round"/>
<path id="Vector_8" d="M6.28574 8.57153C6.28574 10.0915 9.71431 10.0915 9.71431 8.57153" stroke="#222529" stroke-width="1.14286" stroke-linecap="round" stroke-linejoin="round"/>
</g>
</g>
<defs>
<clipPath id="clip0_1302_6218">
<rect width="16" height="16" fill="white"/>
</clipPath>
</defs>
</svg>
