<svg width="16" height="17" viewBox="0 0 16 17" fill="none" xmlns="http://www.w3.org/2000/svg">
<g clip-path="url(#clip0_877_26599)">
<path d="M14.857 8.28259L8.05702 15.1397C7.79318 15.4086 7.4784 15.6221 7.13107 15.7679C6.78375 15.9137 6.41084 15.9888 6.03417 15.9888C5.65749 15.9888 5.28459 15.9137 4.93726 15.7679C4.58993 15.6221 4.27515 15.4086 4.01131 15.1397L1.97702 13.0712C1.44448 12.5303 1.146 11.8016 1.146 11.0426C1.146 10.2835 1.44448 9.55491 1.97702 9.01402L9.22274 1.74545C9.43522 1.53121 9.68803 1.36117 9.96656 1.24512C10.2451 1.12908 10.5439 1.06934 10.8456 1.06934C11.1473 1.06934 11.4461 1.12908 11.7246 1.24512C12.0032 1.36117 12.256 1.53121 12.4685 1.74545L13.2799 2.55688C13.4941 2.76936 13.6642 3.02216 13.7802 3.3007C13.8962 3.57924 13.956 3.87799 13.956 4.17973C13.956 4.48147 13.8962 4.78023 13.7802 5.05876C13.6642 5.3373 13.4941 5.5901 13.2799 5.80259L6.85702 12.2483C6.75078 12.3554 6.62438 12.4404 6.48511 12.4985C6.34584 12.5565 6.19646 12.5864 6.04559 12.5864C5.89472 12.5864 5.74535 12.5565 5.60608 12.4985C5.46681 12.4404 5.34041 12.3554 5.23417 12.2483L4.83417 11.8369C4.72705 11.7306 4.64202 11.6042 4.584 11.465C4.52598 11.3257 4.49611 11.1763 4.49611 11.0254C4.49611 10.8746 4.52598 10.7252 4.584 10.5859C4.64202 10.4467 4.72705 10.3203 4.83417 10.214L9.14274 5.93973" stroke="#282C30" stroke-width="1.14286" stroke-linecap="round" stroke-linejoin="round"/>
</g>
<defs>
<clipPath id="clip0_877_26599">
<rect width="16" height="16" fill="white" transform="translate(0 0.5)"/>
</clipPath>
</defs>
</svg>
