<svg width="16" height="17" viewBox="0 0 16 17" fill="none" xmlns="http://www.w3.org/2000/svg">
<g clip-path="url(#clip0_879_10434)">
<path d="M4.57157 7.91748L0.902997 11.5518C0.795878 11.658 0.710856 11.7844 0.652835 11.9237C0.594814 12.0629 0.564941 12.2123 0.564941 12.3632C0.564941 12.5141 0.594814 12.6634 0.652835 12.8027C0.710856 12.942 0.795878 13.0684 0.902997 13.1746L3.32585 15.5975C3.4321 15.7046 3.5585 15.7896 3.69777 15.8476C3.83703 15.9057 3.98641 15.9355 4.13728 15.9355C4.28815 15.9355 4.43753 15.9057 4.5768 15.8476C4.71607 15.7896 4.84247 15.7046 4.94871 15.5975L8.583 11.9289" stroke="#AEB5BC" stroke-width="1.14286" stroke-linecap="round" stroke-linejoin="round"/>
<path d="M11.4289 9.083L15.0632 5.44871C15.1703 5.34247 15.2553 5.21607 15.3134 5.0768C15.3714 4.93753 15.4013 4.78815 15.4013 4.63728C15.4013 4.48641 15.3714 4.33703 15.3134 4.19777C15.2553 4.0585 15.1703 3.9321 15.0632 3.82585L12.6746 1.403C12.5684 1.29588 12.442 1.21086 12.3027 1.15283C12.1634 1.09481 12.0141 1.06494 11.8632 1.06494C11.7123 1.06494 11.5629 1.09481 11.4237 1.15283C11.2844 1.21086 11.158 1.29588 11.0518 1.403L7.41748 5.07157" stroke="#AEB5BC" stroke-width="1.14286" stroke-linecap="round" stroke-linejoin="round"/>
<path d="M10.2858 6.21436L5.71436 10.7858" stroke="#AEB5BC" stroke-width="1.14286" stroke-linecap="round" stroke-linejoin="round"/>
</g>
<defs>
<clipPath id="clip0_879_10434">
<rect width="16" height="16" fill="white" transform="translate(0 0.5)"/>
</clipPath>
</defs>
</svg>
