<svg width="16" height="17" viewBox="0 0 16 17" fill="none" xmlns="http://www.w3.org/2000/svg">
<g id="&#208;&#152;&#208;&#186;&#208;&#190;&#208;&#189;&#208;&#186;&#208;&#184; &#208;&#180;&#208;&#187;&#209;&#143; &#208;&#186;&#208;&#189;&#208;&#190;&#208;&#191;&#208;&#190;&#208;&#186;" clip-path="url(#clip0_1307_2249)">
<path id="Vector" d="M14.8571 8.28308L8.05715 15.1402C7.7933 15.4091 7.47852 15.6226 7.13119 15.7684C6.78387 15.9142 6.41097 15.9893 6.03429 15.9893C5.65761 15.9893 5.28471 15.9142 4.93738 15.7684C4.59006 15.6226 4.27527 15.4091 4.01143 15.1402L1.97714 13.0716C1.4446 12.5308 1.14612 11.8021 1.14612 11.0431C1.14612 10.284 1.4446 9.5554 1.97714 9.01451L9.22286 1.74593C9.43535 1.5317 9.68815 1.36165 9.96668 1.24561C10.2452 1.12957 10.544 1.06982 10.8457 1.06982C11.1475 1.06982 11.4462 1.12957 11.7247 1.24561C12.0033 1.36165 12.2561 1.5317 12.4686 1.74593L13.28 2.55736C13.4942 2.76985 13.6643 3.02265 13.7803 3.30119C13.8964 3.57972 13.9561 3.87848 13.9561 4.18022C13.9561 4.48196 13.8964 4.78072 13.7803 5.05925C13.6643 5.33779 13.4942 5.59059 13.28 5.80308L6.85714 12.2488C6.7509 12.3559 6.6245 12.4409 6.48523 12.499C6.34596 12.557 6.19659 12.5868 6.04572 12.5868C5.89485 12.5868 5.74547 12.557 5.6062 12.499C5.46693 12.4409 5.34053 12.3559 5.23429 12.2488L4.83429 11.8374C4.72717 11.7311 4.64215 11.6047 4.58413 11.4655C4.5261 11.3262 4.49623 11.1768 4.49623 11.0259C4.49623 10.8751 4.5261 10.7257 4.58413 10.5864C4.64215 10.4472 4.72717 10.3207 4.83429 10.2145L9.14286 5.94022" stroke="#353A3F" stroke-width="1.14286" stroke-linecap="round" stroke-linejoin="round"/>
</g>
<defs>
<clipPath id="clip0_1307_2249">
<rect width="16" height="16" fill="white" transform="translate(0 0.5)"/>
</clipPath>
</defs>
</svg>
