<svg width="24" height="24" viewBox="0 0 24 24" fill="none" xmlns="http://www.w3.org/2000/svg">
<path opacity="0.15" d="M5.19043 22.5698C5.19043 22.7687 5.87525 22.9595 7.09424 23.1002C8.31322 23.2408 9.96652 23.3198 11.6904 23.3198C13.4143 23.3198 15.0676 23.2408 16.2866 23.1002C17.5056 22.9595 18.1904 22.7687 18.1904 22.5698C18.1904 22.3709 17.5056 22.1801 16.2866 22.0395C15.0676 21.8988 13.4143 21.8198 11.6904 21.8198C9.96652 21.8198 8.31322 21.8988 7.09424 22.0395C5.87525 22.1801 5.19043 22.3709 5.19043 22.5698Z" fill="#45413C"/>
<path d="M4.99023 8.18018H18.7402V19.1802H4.99023V8.18018Z" fill="#FFE500"/>
<path d="M17.24 8.18021H6.5C6.10218 8.18021 5.72064 8.33824 5.43934 8.61955C5.15804 8.90085 5 9.28238 5 9.68021V11.6802C5 11.2824 5.15804 10.9009 5.43934 10.6195C5.72064 10.3382 6.10218 10.1802 6.5 10.1802H17.25C17.6478 10.1802 18.0294 10.3382 18.3107 10.6195C18.592 10.9009 18.75 11.2824 18.75 11.6802V9.68021C18.75 9.48238 18.7109 9.28651 18.6349 9.10386C18.5589 8.92122 18.4475 8.75542 18.3071 8.616C18.1668 8.47658 18.0002 8.3663 17.8171 8.29151C17.634 8.21672 17.4378 8.17889 17.24 8.18021Z" fill="#FFF48C"/>
<path d="M4.99023 8.18018H18.7402V19.1802H4.99023V8.18018Z" stroke="#45413C" stroke-width="0.5" stroke-linecap="round" stroke-linejoin="round"/>
<path d="M11.865 0.680185C10.4416 0.684153 9.07778 1.25204 8.07222 2.25947C7.06666 3.26691 6.50132 4.63178 6.5 6.05518V8.18019H8.75V6.05518C8.75 5.22638 9.07924 4.43153 9.66529 3.84548C10.2513 3.25943 11.0462 2.93019 11.875 2.93019C12.7038 2.93019 13.4987 3.25943 14.0847 3.84548C14.6708 4.43153 15 5.22638 15 6.05518V8.18019H17.25V6.05518C17.25 5.34849 17.1106 4.64873 16.8399 3.99595C16.5692 3.34317 16.1723 2.75019 15.6722 2.25095C15.172 1.7517 14.5783 1.35599 13.925 1.08646C13.2717 0.816929 12.5717 0.67887 11.865 0.680185Z" fill="#DAEDF7"/>
<path d="M11.865 0.680185C10.4416 0.684153 9.07778 1.25204 8.07222 2.25947C7.06666 3.26691 6.50132 4.63178 6.5 6.05518V7.30518C6.5 5.87965 7.06629 4.51249 8.0743 3.50449C9.08231 2.49648 10.4495 1.93019 11.875 1.93019C13.3005 1.93019 14.6677 2.49648 15.6757 3.50449C16.6837 4.51249 17.25 5.87965 17.25 7.30518V6.05518C17.25 5.34849 17.1106 4.64873 16.8399 3.99595C16.5692 3.34317 16.1723 2.75019 15.6722 2.25095C15.172 1.7517 14.5783 1.35599 13.925 1.08646C13.2717 0.816929 12.5717 0.67887 11.865 0.680185Z" fill="white"/>
<path d="M11.865 0.680185C10.4416 0.684153 9.07778 1.25204 8.07222 2.25947C7.06666 3.26691 6.50132 4.63178 6.5 6.05518V8.18019H8.75V6.05518C8.75 5.22638 9.07924 4.43153 9.66529 3.84548C10.2513 3.25943 11.0462 2.93019 11.875 2.93019C12.7038 2.93019 13.4987 3.25943 14.0847 3.84548C14.6708 4.43153 15 5.22638 15 6.05518V8.18019H17.25V6.05518C17.25 5.34849 17.1106 4.64873 16.8399 3.99595C16.5692 3.34317 16.1723 2.75019 15.6722 2.25095C15.172 1.7517 14.5783 1.35599 13.925 1.08646C13.2717 0.816929 12.5717 0.67887 11.865 0.680185Z" stroke="#45413C" stroke-width="0.5" stroke-linecap="round" stroke-linejoin="round"/>
</svg>
