<svg width="10" height="17" viewBox="0 0 10 17" fill="none" xmlns="http://www.w3.org/2000/svg">
<path d="M9 15.9286H7.28571C6.67951 15.9286 6.09812 15.6878 5.66947 15.2591C5.24082 14.8305 5 14.2491 5 13.6429C5 14.2491 4.75918 14.8305 4.33053 15.2591C3.90188 15.6878 3.32049 15.9286 2.71429 15.9286H1" stroke="#AEB5BC" stroke-width="1.14286" stroke-linecap="round" stroke-linejoin="round"/>
<path d="M9 1.07144H7.28571C6.67951 1.07144 6.09812 1.31226 5.66947 1.74091C5.24082 2.16957 5 2.75095 5 3.35716C5 2.75095 4.75918 2.16957 4.33053 1.74091C3.90188 1.31226 3.32049 1.07144 2.71429 1.07144H1" stroke="#AEB5BC" stroke-width="1.14286" stroke-linecap="round" stroke-linejoin="round"/>
<path d="M5 3.35715V13.6429" stroke="#AEB5BC" stroke-width="1.14286" stroke-linecap="round" stroke-linejoin="round"/>
<path d="M2.14282 9.64288H7.85711" stroke="#AEB5BC" stroke-width="1.14286" stroke-linecap="round" stroke-linejoin="round"/>
</svg>
