<svg width="16" height="17" viewBox="0 0 16 17" fill="none" xmlns="http://www.w3.org/2000/svg">
<g clip-path="url(#clip0_879_9909)">
<path d="M11.4856 8.49985C11.4855 9.1755 11.2857 9.83607 10.9115 10.3986C10.5372 10.9611 10.0051 11.4005 9.38191 11.6616C8.75874 11.9227 8.07232 11.9939 7.40885 11.8661C6.74538 11.7384 6.13443 11.4175 5.65274 10.9437C5.17105 10.4699 4.84009 9.86434 4.70141 9.20307C4.56274 8.5418 4.62253 7.8543 4.87329 7.2269C5.12405 6.59951 5.5546 6.06018 6.11086 5.67667C6.66711 5.29315 7.32429 5.08254 7.99985 5.07128C8.45488 5.06369 8.90687 5.14677 9.32946 5.31568C9.75205 5.48458 10.1368 5.73592 10.4612 6.05505C10.7857 6.37418 11.0434 6.75471 11.2192 7.17446C11.3951 7.5942 11.4856 8.04475 11.4856 8.49985Z" stroke="#AEB5BC" stroke-width="1.14286" stroke-linecap="round" stroke-linejoin="round"/>
<path d="M11.4856 8.49986V9.98558C11.4856 13.9741 17.737 10.2141 14.457 4.797C13.7965 3.66906 12.8539 2.73242 11.7217 2.07918C10.5896 1.42594 9.30694 1.07859 7.99987 1.07129C6.90177 1.07468 5.81808 1.32148 4.82681 1.79391C3.83553 2.26635 2.96132 2.95268 2.2671 3.80349C1.57289 4.65431 1.07593 5.64845 0.811998 6.71436C0.548069 7.78028 0.523734 8.89144 0.740745 9.96789C0.957757 11.0443 1.41072 12.0593 2.06702 12.9397C2.72332 13.8201 3.56665 14.544 4.53629 15.0594C5.50594 15.5748 6.57778 15.8688 7.67467 15.9202C8.77157 15.9717 9.86623 15.7793 10.8799 15.357" stroke="#AEB5BC" stroke-width="1.14286" stroke-linecap="round" stroke-linejoin="round"/>
</g>
<defs>
<clipPath id="clip0_879_9909">
<rect width="16" height="16" fill="white" transform="translate(0 0.5)"/>
</clipPath>
</defs>
</svg>
