<svg id="more-menu" width="25" height="25" viewBox="0 0 25 25" fill="none" xmlns="http://www.w3.org/2000/svg">
<g id="&#208;&#152;&#208;&#186;&#208;&#190;&#208;&#189;&#208;&#186;&#208;&#184; &#208;&#180;&#208;&#187;&#209;&#143; &#208;&#188;&#208;&#181;&#208;&#189;&#209;&#142;" clip-path="url(#clip0_1161_4220)">
<g id="Group">
<path id="Vector" d="M20.5788 15.0716C21.9989 15.0716 23.1502 13.9203 23.1502 12.5001C23.1502 11.08 21.9989 9.92871 20.5788 9.92871C19.1586 9.92871 18.0073 11.08 18.0073 12.5001C18.0073 13.9203 19.1586 15.0716 20.5788 15.0716Z" stroke="#222529" stroke-width="1.71429" stroke-linecap="round" stroke-linejoin="round"/>
<path id="Vector_2" d="M12.007 15.0716C13.4271 15.0716 14.5784 13.9203 14.5784 12.5001C14.5784 11.08 13.4271 9.92871 12.007 9.92871C10.5868 9.92871 9.43555 11.08 9.43555 12.5001C9.43555 13.9203 10.5868 15.0716 12.007 15.0716Z" stroke="#222529" stroke-width="1.71429" stroke-linecap="round" stroke-linejoin="round"/>
<path id="Vector_3" d="M3.43569 15.0716C4.85585 15.0716 6.00711 13.9203 6.00711 12.5001C6.00711 11.08 4.85585 9.92871 3.43569 9.92871C2.01553 9.92871 0.864258 11.08 0.864258 12.5001C0.864258 13.9203 2.01553 15.0716 3.43569 15.0716Z" stroke="#222529" stroke-width="1.71429" stroke-linecap="round" stroke-linejoin="round"/>
</g>
</g>
<defs>
<clipPath id="clip0_1161_4220">
<rect width="24" height="24" fill="white" transform="translate(0.00732422 0.5)"/>
</clipPath>
</defs>
</svg>
