<svg width="12" height="13" viewBox="0 0 12 13" fill="none" xmlns="http://www.w3.org/2000/svg">
<g clip-path="url(#clip0_850_14791)">
<path d="M7.50849 11.643C8.03634 11.9836 8.66535 12.132 9.28975 12.0633C9.91415 11.9946 10.4959 11.713 10.9371 11.2659L11.3228 10.8887C11.4919 10.7158 11.5866 10.4835 11.5866 10.2416C11.5866 9.9997 11.4919 9.76741 11.3228 9.59445L9.68563 7.97445C9.51412 7.80589 9.28326 7.71143 9.04278 7.71143C8.8023 7.71143 8.57144 7.80589 8.39992 7.97445C8.22695 8.14355 7.99467 8.23823 7.75278 8.23823C7.51088 8.23823 7.2786 8.14355 7.10563 7.97445L4.53421 5.40302C4.44842 5.31848 4.38031 5.21774 4.33381 5.10664C4.28731 4.99554 4.26337 4.87631 4.26337 4.75588C4.26337 4.63544 4.28731 4.51621 4.33381 4.40511C4.38031 4.29401 4.44842 4.19327 4.53421 4.10873C4.70277 3.93722 4.79722 3.70636 4.79722 3.46588C4.79722 3.2254 4.70277 2.99454 4.53421 2.82302L2.90563 1.19445C2.73267 1.02535 2.50038 0.930664 2.25849 0.930664C2.0166 0.930664 1.78431 1.02535 1.61135 1.19445L1.23421 1.58016C0.787073 2.02137 0.505492 2.60308 0.436808 3.22748C0.368125 3.85187 0.516527 4.48088 0.857063 5.00873C2.63139 7.62365 4.88901 9.87545 7.50849 11.643Z" stroke="#AEB5BC" stroke-width="0.857143" stroke-linecap="round" stroke-linejoin="round"/>
</g>
<defs>
<clipPath id="clip0_850_14791">
<rect width="12" height="12" fill="white" transform="translate(0 0.5)"/>
</clipPath>
</defs>
</svg>
