<svg width="17" height="17" viewBox="0 0 17 17" fill="none" xmlns="http://www.w3.org/2000/svg">
<g id="&#208;&#152;&#208;&#186;&#208;&#190;&#208;&#189;&#208;&#186;&#208;&#184; &#208;&#180;&#208;&#187;&#209;&#143; &#208;&#186;&#208;&#189;&#208;&#190;&#208;&#191;&#208;&#190;&#208;&#186;" clip-path="url(#clip0_1161_2221)">
<g id="Group">
<path id="Vector" d="M14.7857 1.07153H2.2143C1.91119 1.07153 1.6205 1.19194 1.40618 1.40627C1.19185 1.6206 1.07144 1.91129 1.07144 2.21439V11.9287C1.07144 12.2318 1.19185 12.5225 1.40618 12.7368C1.6205 12.9511 1.91119 13.0715 2.2143 13.0715H4.50001V15.9287L8.06573 13.0715H14.7857C15.0888 13.0715 15.3795 12.9511 15.5938 12.7368C15.8082 12.5225 15.9286 12.2318 15.9286 11.9287V2.21439C15.9286 1.91129 15.8082 1.6206 15.5938 1.40627C15.3795 1.19194 15.0888 1.07153 14.7857 1.07153Z" stroke="#F8F8F8" stroke-width="1.14286" stroke-linecap="round" stroke-linejoin="round"/>
<path id="Vector_2" d="M6.78574 5.643C6.78574 5.30394 6.88628 4.9725 7.07465 4.69059C7.26301 4.40868 7.53075 4.18895 7.84399 4.0592C8.15724 3.92945 8.50192 3.89551 8.83446 3.96165C9.167 4.0278 9.47246 4.19107 9.71221 4.43081C9.95195 4.67056 10.1152 4.97602 10.1814 5.30856C10.2475 5.6411 10.2136 5.98578 10.0838 6.29903C9.95407 6.61227 9.73434 6.88001 9.45243 7.06837C9.17052 7.25674 8.83908 7.35728 8.50002 7.35728V7.92871" stroke="#F8F8F8" stroke-width="1.14286" stroke-linecap="round" stroke-linejoin="round"/>
<path id="Vector_3" d="M8.34129 10.2626C8.38725 10.2319 8.4411 10.2152 8.49632 10.2145C8.5724 10.2165 8.6449 10.2476 8.69878 10.3015C8.75267 10.3553 8.78376 10.4278 8.78572 10.5039C8.785 10.5591 8.7683 10.613 8.73759 10.6589L9.21272 10.9764L8.73759 10.6589C8.7062 10.7059 8.66157 10.7425 8.60937 10.7642L8.81728 11.2661L8.60936 10.7642C8.55716 10.7858 8.49971 10.7915 8.44429 10.7804C8.38886 10.7694 8.33795 10.7422 8.298 10.7022C8.25804 10.6623 8.23083 10.6114 8.2198 10.5559C8.20878 10.5005 8.21444 10.4431 8.23606 10.3909C8.25769 10.3387 8.29431 10.294 8.34129 10.2626Z" fill="#F8F8F8" stroke="#F8F8F8" stroke-width="1.14286"/>
</g>
</g>
<defs>
<clipPath id="clip0_1161_2221">
<rect width="16" height="16" fill="white" transform="translate(0.5 0.5)"/>
</clipPath>
</defs>
</svg>
