<svg width="15" height="16" viewBox="0 0 15 16" fill="none" xmlns="http://www.w3.org/2000/svg">
<g id="Group">
<path id="Vector" d="M0.642883 4H14.3572" stroke="black" stroke-width="1.14286" stroke-linecap="round" stroke-linejoin="round"/>
<path id="Vector_2" d="M2.35718 4H12.6429V14.2857C12.6429 14.5888 12.5225 14.8795 12.3082 15.0938C12.0938 15.3082 11.8031 15.4286 11.5 15.4286H3.50003C3.19693 15.4286 2.90624 15.3082 2.69191 15.0938C2.47759 14.8795 2.35718 14.5888 2.35718 14.2857V4Z" stroke="black" stroke-width="1.14286" stroke-linecap="round" stroke-linejoin="round"/>
<path id="Vector_3" d="M4.64288 3.99986V3.42843C4.64288 2.67067 4.9439 1.94395 5.47972 1.40813C6.01554 0.872309 6.74226 0.571289 7.50003 0.571289C8.25779 0.571289 8.98451 0.872309 9.52033 1.40813C10.0561 1.94395 10.3572 2.67067 10.3572 3.42843V3.99986" stroke="black" stroke-width="1.14286" stroke-linecap="round" stroke-linejoin="round"/>
<path id="Vector_4" d="M5.78577 6.28564V12.5714" stroke="black" stroke-width="1.14286" stroke-linecap="round" stroke-linejoin="round"/>
<path id="Vector_5" d="M9.21429 6.28564V12.5714" stroke="black" stroke-width="1.14286" stroke-linecap="round" stroke-linejoin="round"/>
</g>
</svg>
