<svg width="16" height="16" viewBox="0 0 16 16" fill="none" xmlns="http://www.w3.org/2000/svg">
<g id="16 px" clip-path="url(#clip0_1302_6179)">
<g id="Group">
<path id="Vector" d="M14.8571 7.42865C14.8578 6.25364 14.5565 5.09817 13.9822 4.07308C13.4078 3.048 12.5797 2.18769 11.5773 1.5747C10.5748 0.961707 9.43168 0.616593 8.25749 0.572465C7.08331 0.528337 5.91748 0.786675 4.87185 1.3227C3.82622 1.85872 2.93588 2.65444 2.28622 3.63353C1.63657 4.61261 1.24941 5.74221 1.16188 6.91396C1.07435 8.08571 1.28938 9.26029 1.78636 10.325C2.28334 11.3898 3.04558 12.3089 3.99997 12.9944V14.2858C3.99997 14.5889 4.12037 14.8796 4.3347 15.0939C4.54903 15.3082 4.83972 15.4287 5.14282 15.4287H10.8571C11.1602 15.4287 11.4509 15.3082 11.6652 15.0939C11.8796 14.8796 12 14.5889 12 14.2858V12.9944C12.8835 12.3598 13.6035 11.5241 14.1003 10.5563C14.5971 9.58857 14.8565 8.51649 14.8571 7.42865Z" stroke="#222529" stroke-width="1.14286" stroke-linecap="round" stroke-linejoin="round"/>
<path id="Vector_2" d="M5.14272 8.57157C5.45831 8.57157 5.71415 8.31573 5.71415 8.00014C5.71415 7.68455 5.45831 7.42871 5.14272 7.42871C4.82713 7.42871 4.57129 7.68455 4.57129 8.00014C4.57129 8.31573 4.82713 8.57157 5.14272 8.57157Z" stroke="#222529" stroke-width="1.14286" stroke-linecap="round" stroke-linejoin="round"/>
<path id="Vector_3" d="M10.8571 8.57157C11.1727 8.57157 11.4285 8.31573 11.4285 8.00014C11.4285 7.68455 11.1727 7.42871 10.8571 7.42871C10.5415 7.42871 10.2856 7.68455 10.2856 8.00014C10.2856 8.31573 10.5415 8.57157 10.8571 8.57157Z" stroke="#222529" stroke-width="1.14286" stroke-linecap="round" stroke-linejoin="round"/>
<path id="Vector_4" d="M6.85718 13.1428V15.4285" stroke="#222529" stroke-width="1.14286" stroke-linecap="round" stroke-linejoin="round"/>
<path id="Vector_5" d="M9.14282 13.1428V15.4285" stroke="#222529" stroke-width="1.14286" stroke-linecap="round" stroke-linejoin="round"/>
</g>
</g>
<defs>
<clipPath id="clip0_1302_6179">
<rect width="16" height="16" fill="white"/>
</clipPath>
</defs>
</svg>
