<svg width="24" height="24" viewBox="0 0 24 24" fill="none" xmlns="http://www.w3.org/2000/svg">
<path d="M7.265 2.62012H16.43C16.9901 2.62012 17.5447 2.73043 18.0621 2.94477C18.5796 3.15911 19.0498 3.47326 19.4458 3.86931C19.8419 4.26535 20.156 4.73552 20.3703 5.25297C20.5847 5.77043 20.695 6.32503 20.695 6.88512V14.4351C20.695 14.6009 20.6292 14.7598 20.5119 14.8771C20.3947 14.9943 20.2358 15.0601 20.07 15.0601H3.625C3.45924 15.0601 3.30027 14.9943 3.18306 14.8771C3.06585 14.7598 3 14.6009 3 14.4351V6.88512C3 5.75397 3.44935 4.66915 4.24919 3.86931C5.04903 3.06946 6.13385 2.62012 7.265 2.62012Z" fill="#00B8F0"/>
<path d="M16.43 2.62012H7.265C6.13385 2.62012 5.04903 3.06946 4.24919 3.86931C3.44935 4.66915 3 5.75397 3 6.88512V8.76012C3.00133 7.62984 3.45126 6.5463 4.25096 5.74754C5.05066 4.94878 6.13472 4.50012 7.265 4.50012H16.43C16.9901 4.50012 17.5447 4.61043 18.0621 4.82477C18.5796 5.03911 19.0498 5.35326 19.4458 5.74931C19.8419 6.14535 20.156 6.61552 20.3703 7.13297C20.5847 7.65043 20.695 8.20503 20.695 8.76512V6.88512C20.695 6.32503 20.5847 5.77043 20.3703 5.25297C20.156 4.73552 19.8419 4.26535 19.4458 3.86931C19.0498 3.47326 18.5796 3.15911 18.0621 2.94477C17.5447 2.73043 16.9901 2.62012 16.43 2.62012Z" fill="#4ACFFF"/>
<path d="M7.265 2.62012H16.43C16.9901 2.62012 17.5447 2.73043 18.0621 2.94477C18.5796 3.15911 19.0498 3.47326 19.4458 3.86931C19.8419 4.26535 20.156 4.73552 20.3703 5.25297C20.5847 5.77043 20.695 6.32503 20.695 6.88512V14.4351C20.695 14.6009 20.6292 14.7598 20.5119 14.8771C20.3947 14.9943 20.2358 15.0601 20.07 15.0601H3.625C3.45924 15.0601 3.30027 14.9943 3.18306 14.8771C3.06585 14.7598 3 14.6009 3 14.4351V6.88512C3 5.75397 3.44935 4.66915 4.24919 3.86931C5.04903 3.06946 6.13385 2.62012 7.265 2.62012Z" stroke="#45413C" stroke-width="0.5" stroke-linecap="round" stroke-linejoin="round"/>
<path opacity="0.15" d="M5.53998 22.0649C5.53998 22.1877 5.72582 22.3093 6.0869 22.4227C6.44798 22.5361 6.97723 22.6392 7.64442 22.726C8.3116 22.8129 9.10367 22.8817 9.9754 22.9287C10.8471 22.9757 11.7814 22.9999 12.725 22.9999C13.6685 22.9999 14.6028 22.9757 15.4746 22.9287C16.3463 22.8817 17.1384 22.8129 17.8055 22.726C18.4727 22.6392 19.002 22.5361 19.3631 22.4227C19.7241 22.3093 19.91 22.1877 19.91 22.0649C19.91 21.9421 19.7241 21.8205 19.3631 21.7071C19.002 21.5936 18.4727 21.4906 17.8055 21.4037C17.1384 21.3169 16.3463 21.248 15.4746 21.2011C14.6028 21.1541 13.6685 21.1299 12.725 21.1299C11.7814 21.1299 10.8471 21.1541 9.9754 21.2011C9.10367 21.248 8.3116 21.3169 7.64442 21.4037C6.97723 21.4906 6.44798 21.5936 6.0869 21.7071C5.72582 21.8205 5.53998 21.9421 5.53998 22.0649Z" fill="#45413C"/>
<path d="M7.27 2.62012C6.13753 2.62012 5.05143 3.06999 4.25065 3.87077C3.44987 4.67155 3 5.75764 3 6.89012V14.4351C3 14.6009 3.06585 14.7598 3.18306 14.8771C3.30027 14.9943 3.45924 15.0601 3.625 15.0601H10.91C11.0758 15.0601 11.2347 14.9943 11.3519 14.8771C11.4692 14.7598 11.535 14.6009 11.535 14.4351V6.89012C11.5357 6.32961 11.4258 5.77447 11.2118 5.25644C10.9977 4.73841 10.6837 4.26765 10.2876 3.87107C9.89147 3.4745 9.42108 3.1599 8.9033 2.94525C8.38552 2.7306 7.83051 2.62012 7.27 2.62012Z" fill="#C0DCEB"/>
<path d="M7.27001 2.62012C6.229 2.61833 5.22362 2.99913 4.44501 3.69012C5.05485 3.59151 5.67884 3.62672 6.27373 3.7933C6.86861 3.95988 7.42014 4.25385 7.89009 4.65482C8.36004 5.0558 8.73715 5.55419 8.99529 6.11544C9.25342 6.67668 9.3864 7.28736 9.38501 7.90512V15.0601H10.91C11.0758 15.0601 11.2347 14.9943 11.3519 14.8771C11.4692 14.7599 11.535 14.6009 11.535 14.4351V6.89012C11.5357 6.32962 11.4258 5.77447 11.2118 5.25644C10.9977 4.73841 10.6837 4.26765 10.2876 3.87108C9.89148 3.47451 9.42109 3.1599 8.90331 2.94526C8.38553 2.73061 7.83052 2.62012 7.27001 2.62012Z" fill="#8CA4B8"/>
<path d="M7.27 2.62012C6.13753 2.62012 5.05143 3.06999 4.25065 3.87077C3.44987 4.67155 3 5.75764 3 6.89012V14.4351C3 14.6009 3.06585 14.7598 3.18306 14.8771C3.30027 14.9943 3.45924 15.0601 3.625 15.0601H10.91C11.0758 15.0601 11.2347 14.9943 11.3519 14.8771C11.4692 14.7598 11.535 14.6009 11.535 14.4351V6.89012C11.5357 6.32961 11.4258 5.77447 11.2118 5.25644C10.9977 4.73841 10.6837 4.26765 10.2876 3.87107C9.89147 3.4745 9.42108 3.1599 8.9033 2.94525C8.38552 2.7306 7.83051 2.62012 7.27 2.62012Z" stroke="#45413C" stroke-width="0.5" stroke-linecap="round" stroke-linejoin="round"/>
<path d="M15.5 0.684893H13.875C13.7932 0.684233 13.712 0.699783 13.6362 0.730645C13.5604 0.761507 13.4915 0.807071 13.4334 0.864709C13.3753 0.922348 13.3291 0.990919 13.2977 1.06647C13.2662 1.14202 13.25 1.22305 13.25 1.30489V9.14989C13.2406 9.27876 13.2578 9.40819 13.3007 9.5301C13.3435 9.652 13.411 9.76376 13.499 9.8584C13.587 9.95304 13.6935 10.0285 13.812 10.0801C13.9305 10.1318 14.0583 10.1584 14.1875 10.1584C14.3167 10.1584 14.4445 10.1318 14.563 10.0801C14.6815 10.0285 14.788 9.95304 14.876 9.8584C14.964 9.76376 15.0315 9.652 15.0743 9.5301C15.1172 9.40819 15.1344 9.27876 15.125 9.14989V4.31989H15.5C15.5831 4.32257 15.6659 4.30852 15.7434 4.27856C15.821 4.24861 15.8917 4.20337 15.9514 4.14552C16.0111 4.08768 16.0586 4.01842 16.091 3.94187C16.1234 3.86531 16.14 3.78302 16.14 3.69989V1.30489C16.14 1.22176 16.1234 1.13947 16.091 1.06292C16.0586 0.986361 16.0111 0.917103 15.9514 0.859261C15.8917 0.80142 15.821 0.756176 15.7434 0.726221C15.6659 0.696266 15.5831 0.682211 15.5 0.684893Z" fill="#FF6242" stroke="#45413C" stroke-width="0.5" stroke-linecap="round" stroke-linejoin="round"/>
<path d="M11.08 15.0601H14.05V21.3751C14.05 21.5408 13.9842 21.6998 13.867 21.817C13.7497 21.9342 13.5908 22.0001 13.425 22.0001H11.705C11.5393 22.0001 11.3803 21.9342 11.2631 21.817C11.1459 21.6998 11.08 21.5408 11.08 21.3751V15.0601Z" fill="#DEBB7E"/>
<path d="M11.08 15.0601H14.045V16.6201H11.08V15.0601Z" fill="#B89558"/>
<path d="M11.08 15.0601H14.05V21.3751C14.05 21.5408 13.9842 21.6998 13.867 21.817C13.7497 21.9342 13.5908 22.0001 13.425 22.0001H11.705C11.5393 22.0001 11.3803 21.9342 11.2631 21.817C11.1459 21.6998 11.08 21.5408 11.08 21.3751V15.0601Z" stroke="#45413C" stroke-width="0.5" stroke-linecap="round" stroke-linejoin="round"/>
<path d="M5.58499 6.6748C5.50314 6.6748 5.42211 6.691 5.34656 6.72247C5.27101 6.75394 5.20244 6.80006 5.1448 6.85816C5.08716 6.91627 5.0416 6.98521 5.01074 7.06101C4.97988 7.13681 4.96433 7.21797 4.96499 7.2998V14.4348C4.96433 14.5166 4.97988 14.5978 5.01074 14.6736C5.0416 14.7494 5.08716 14.8183 5.1448 14.8764C5.20244 14.9345 5.27101 14.9807 5.34656 15.0121C5.42211 15.0436 5.50314 15.0598 5.58499 15.0598H10.91C11.0757 15.0598 11.2347 14.994 11.3519 14.8767C11.4691 14.7595 11.535 14.6006 11.535 14.4348V6.8898C11.535 6.8148 11.535 6.7448 11.535 6.6748H5.58499Z" fill="white"/>
<path d="M11.53 6.6748H9.84003C9.84003 6.7448 9.84003 6.8148 9.84003 6.8898V14.4348C9.84003 14.6006 9.77418 14.7595 9.65697 14.8767C9.53976 14.994 9.38079 15.0598 9.21503 15.0598H10.905C11.0708 15.0598 11.2298 14.994 11.347 14.8767C11.4642 14.7595 11.53 14.6006 11.53 14.4348V6.8898C11.535 6.8148 11.535 6.7448 11.53 6.6748Z" fill="#F0F0F0"/>
<path d="M5.58499 6.6748C5.50314 6.6748 5.42211 6.691 5.34656 6.72247C5.27101 6.75394 5.20244 6.80006 5.1448 6.85816C5.08716 6.91627 5.0416 6.98521 5.01074 7.06101C4.97988 7.13681 4.96433 7.21797 4.96499 7.2998V14.4348C4.96433 14.5166 4.97988 14.5978 5.01074 14.6736C5.0416 14.7494 5.08716 14.8183 5.1448 14.8764C5.20244 14.9345 5.27101 14.9807 5.34656 15.0121C5.42211 15.0436 5.50314 15.0598 5.58499 15.0598H10.91C11.0757 15.0598 11.2347 14.994 11.3519 14.8767C11.4691 14.7595 11.535 14.6006 11.535 14.4348V6.8898C11.535 6.8148 11.535 6.7448 11.535 6.6748H5.58499Z" stroke="#45413C" stroke-width="0.5" stroke-linecap="round" stroke-linejoin="round"/>
<path d="M5.12 6.89014L11.535 11.6501" stroke="#45413C" stroke-width="0.5" stroke-linecap="round" stroke-linejoin="round"/>
<path d="M5.12 14.845L10.125 10.605" stroke="#45413C" stroke-width="0.5" stroke-linecap="round" stroke-linejoin="round"/>
</svg>
