<svg width="24" height="25" viewBox="0 0 24 25" fill="none" xmlns="http://www.w3.org/2000/svg">
<g id="&#208;&#152;&#208;&#186;&#208;&#190;&#208;&#189;&#208;&#186;&#208;&#184; &#208;&#180;&#208;&#187;&#209;&#143; &#208;&#188;&#208;&#181;&#208;&#189;&#209;&#142;" clip-path="url(#clip0_1302_9387)">
<path id="Vector" d="M9.78836 7.88853C6.49693 5.64282 3.42836 7.3571 0.856934 9.9971L6.54836 13.4257" stroke="#222529" stroke-width="1.71429" stroke-linecap="round" stroke-linejoin="round"/>
<path id="Vector_2" d="M16.6114 14.7114C18.857 18.0028 17.1428 21.0714 14.5028 23.6428L11.0742 17.9514" stroke="#222529" stroke-width="1.71429" stroke-linecap="round" stroke-linejoin="round"/>
<path id="Vector_3" d="M6.54883 13.4087L11.0917 17.9515C14.726 15.7744 18.8574 13.6658 20.7431 11.7115C24.8231 7.63152 22.4574 2.04295 22.4574 2.04295C22.4574 2.04295 16.8688 -0.322764 12.7888 3.75723C10.8345 5.64295 8.70883 9.79152 6.54883 13.4087Z" stroke="#222529" stroke-width="1.71429" stroke-linecap="round" stroke-linejoin="round"/>
<path id="Vector_4" d="M9.05127 9.10596L15.3941 15.4488" stroke="#222529" stroke-width="1.71429" stroke-linecap="round" stroke-linejoin="round"/>
<path id="Vector_5" d="M18.0002 7.35735C18.4735 7.35735 18.8574 6.97359 18.8574 6.50021C18.8574 6.02683 18.4735 5.64307 18.0002 5.64307C17.5269 5.64307 17.1431 6.02683 17.1431 6.50021C17.1431 6.97359 17.5269 7.35735 18.0002 7.35735Z" stroke="#222529" stroke-width="1.71429" stroke-linecap="round" stroke-linejoin="round"/>
<path id="Vector_6" d="M6.30836 21.8258C5.31408 22.7858 0.856934 23.6429 0.856934 23.6429C0.856934 23.6429 1.71408 19.1858 2.67408 18.1915C2.90948 17.9388 3.19337 17.7362 3.5088 17.5957C3.82423 17.4551 4.16473 17.3795 4.50999 17.3734C4.85527 17.3674 5.19822 17.4309 5.51842 17.5602C5.8386 17.6895 6.12946 17.882 6.37364 18.1262C6.61781 18.3704 6.81031 18.6612 6.93965 18.9814C7.06897 19.3016 7.13249 19.6445 7.12638 19.9899C7.1203 20.3352 7.04473 20.6756 6.90418 20.9911C6.76364 21.3065 6.561 21.5904 6.30836 21.8258Z" stroke="#222529" stroke-width="1.71429" stroke-linecap="round" stroke-linejoin="round"/>
</g>
<defs>
<clipPath id="clip0_1302_9387">
<rect width="24" height="24" fill="white" transform="translate(0 0.5)"/>
</clipPath>
</defs>
</svg>
