<svg width="24" height="25" viewBox="0 0 24 25" fill="none" xmlns="http://www.w3.org/2000/svg">
<g id="&#208;&#152;&#208;&#186;&#208;&#190;&#208;&#189;&#208;&#186;&#208;&#184; &#208;&#180;&#208;&#187;&#209;&#143; &#208;&#188;&#208;&#181;&#208;&#189;&#209;&#142;" clip-path="url(#clip0_1161_4229)">
<path id="Vector" d="M9.84146 7.42256C6.67583 5.26268 3.70458 6.55695 1.14471 8.90503C0.737654 9.27841 0.822665 9.93151 1.29581 10.2165L6.40547 13.2946" fill="#FF756B"/>
<path id="Vector_2" d="M17.0772 14.6582C19.2371 17.8239 17.9428 20.7951 15.5947 23.3549C15.2213 23.762 14.5682 23.677 14.2832 23.2039L11.2051 18.0943" fill="#FF756B"/>
<path id="Vector_3" d="M6.40576 13.2766L11.2234 18.0942C15.0775 15.7854 19.4589 13.5493 21.4586 11.4768C25.7854 7.14999 23.2766 1.22337 23.2766 1.22337C23.2766 1.22337 17.3499 -1.28545 13.0232 3.04136C10.9507 5.04112 8.69642 9.44065 6.40576 13.2766Z" fill="white"/>
<path id="Vector_4" fill-rule="evenodd" clip-rule="evenodd" d="M17.6046 4.18408C16.107 4.18408 14.8931 5.39805 14.8931 6.89557C14.8931 8.39308 16.107 9.60707 17.6046 9.60707C19.102 9.60707 20.3161 8.39308 20.3161 6.89557C20.3161 5.39805 19.102 4.18408 17.6046 4.18408Z" fill="#00CF91"/>
<path id="Vector_5" fill-rule="evenodd" clip-rule="evenodd" d="M5.83963 16.7652C5.4127 16.5927 4.95543 16.508 4.49508 16.5162C4.03473 16.5243 3.58071 16.625 3.16015 16.8124C2.74174 16.9989 2.36496 17.2672 2.05203 17.6017C1.68862 17.9811 1.40392 18.5732 1.18435 19.1228C0.950392 19.7084 0.741122 20.3765 0.569299 21.0001C0.396874 21.626 0.257705 22.2238 0.166041 22.6753C0.120468 22.8999 0.0848918 23.0971 0.062994 23.2476C0.0524145 23.3204 0.0426898 23.3981 0.038125 23.4685C0.0360207 23.5011 0.0333319 23.5556 0.0368882 23.6173C0.0386025 23.6472 0.0429643 23.7024 0.0577833 23.7687C0.0670275 23.81 0.105569 23.9825 0.246519 24.1469C0.411082 24.3389 0.608613 24.3991 0.659462 24.4141C0.736497 24.4371 0.801274 24.4448 0.834734 24.4481C0.904536 24.4549 0.965578 24.4531 0.99935 24.4515C1.07385 24.4481 1.15456 24.4388 1.22764 24.4289C1.37986 24.4081 1.57847 24.3735 1.80362 24.3288C2.25699 24.2389 2.85735 24.1009 3.48593 23.9293C4.11242 23.7583 4.78342 23.5495 5.37147 23.3158C5.92299 23.0965 6.51789 22.8118 6.89806 22.4477C7.23252 22.1348 7.50089 21.758 7.68732 21.3396C7.87471 20.9191 7.97547 20.4651 7.9836 20.0047C7.99173 19.5444 7.90704 19.087 7.7346 18.6601C7.56216 18.2333 7.3055 17.8453 6.97992 17.5198C6.65436 17.1943 6.26654 16.9376 5.83963 16.7652Z" fill="#FF756B"/>
</g>
<defs>
<clipPath id="clip0_1161_4229">
<rect width="24" height="24" fill="white" transform="translate(0 0.5)"/>
</clipPath>
</defs>
</svg>
