<svg width="24" height="25" viewBox="0 0 24 25" fill="none" xmlns="http://www.w3.org/2000/svg">
<g id="&#208;&#152;&#208;&#186;&#208;&#190;&#208;&#189;&#208;&#186;&#208;&#184; &#208;&#180;&#208;&#187;&#209;&#143; &#208;&#176;&#208;&#186;&#209;&#134;&#208;&#181;&#208;&#189;&#209;&#130;&#208;&#189;&#208;&#190;&#208;&#179;&#208;&#190; &#208;&#187;&#208;&#181;&#208;&#185;&#208;&#177;&#208;&#187;&#208;&#176;">
<path id="Vector" d="M22.5 6.15503H19.34C16.8452 6.16169 14.366 5.76144 12 4.97003C9.6426 4.1782 7.17182 3.77626 4.685 3.78003H1.5C1.21 3.78003 1 3.95502 1 4.17502V17.175C1.0185 17.2916 1.0802 17.397 1.17284 17.4702C1.26549 17.5434 1.38228 17.579 1.5 17.57H4.685C7.17273 17.5751 9.64315 17.9837 12 18.78C14.3603 19.5739 16.8347 19.9759 19.325 19.97H22.5C22.618 19.9802 22.7354 19.945 22.8283 19.8716C22.9212 19.7982 22.9826 19.6921 23 19.575V6.57503C22.9873 6.45387 22.9281 6.34237 22.8348 6.26402C22.7416 6.18566 22.6215 6.14659 22.5 6.15503Z" fill="#E04122" stroke="#45413C" stroke-width="0.5" stroke-linecap="round" stroke-linejoin="round"/>
<path id="Vector_2" d="M19.34 10.62C16.8452 10.6267 14.366 10.2265 12 9.43504C9.6426 8.64321 7.17182 8.24127 4.685 8.24504H1V13.11H4.685C7.17054 13.1022 9.6409 13.4973 12 14.28C14.3603 15.0739 16.8347 15.4759 19.325 15.47H23.01V10.62H19.34Z" fill="#009FD9" stroke="#45413C" stroke-width="0.5" stroke-linecap="round" stroke-linejoin="round"/>
<path id="Vector_3" d="M22.5 6.15503H19.34C16.8452 6.16169 14.366 5.76144 12 4.97003C9.6426 4.1782 7.17182 3.77626 4.685 3.78003H1.5C1.21 3.78003 1 3.95502 1 4.17502V8.24503H4.685C7.17182 8.24126 9.6426 8.6432 12 9.43502C14.3612 10.2248 16.8352 10.6251 19.325 10.62H23.01V6.55002C22.9914 6.43155 22.9283 6.32465 22.8335 6.25122C22.7387 6.17779 22.6194 6.14337 22.5 6.15503Z" fill="white" stroke="#45413C" stroke-width="0.5" stroke-linecap="round" stroke-linejoin="round"/>
<path id="Vector_4" opacity="0.15" d="M6.25 23.03C6.25 23.2289 6.8558 23.4197 7.93414 23.5604C9.01247 23.701 10.475 23.78 12 23.78C13.525 23.78 14.9875 23.701 16.0659 23.5604C17.1442 23.4197 17.75 23.2289 17.75 23.03C17.75 22.8311 17.1442 22.6404 16.0659 22.4997C14.9875 22.359 13.525 22.28 12 22.28C10.475 22.28 9.01247 22.359 7.93414 22.4997C6.8558 22.6404 6.25 22.8311 6.25 23.03Z" fill="#45413C"/>
</g>
</svg>
