<svg width="16" height="16" viewBox="0 0 16 16" fill="none" xmlns="http://www.w3.org/2000/svg">
<g id="16 px" clip-path="url(#clip0_1302_7297)">
<g id="Group">
<path id="Vector" d="M14.2856 0.571289H1.71415C1.08296 0.571289 0.571289 1.08296 0.571289 1.71415V14.2856C0.571289 14.9168 1.08296 15.4284 1.71415 15.4284H14.2856C14.9168 15.4284 15.4284 14.9168 15.4284 14.2856V1.71415C15.4284 1.08296 14.9168 0.571289 14.2856 0.571289Z" stroke="#222529" stroke-width="1.14286" stroke-linecap="round" stroke-linejoin="round"/>
<path id="Vector_2" d="M3.42822 5.14258H9.14251" stroke="#222529" stroke-width="1.14286" stroke-linecap="round" stroke-linejoin="round"/>
<path id="Vector_3" d="M10.8569 6.85728C11.8036 6.85728 12.5711 6.08977 12.5711 5.143C12.5711 4.19622 11.8036 3.42871 10.8569 3.42871C9.91009 3.42871 9.14258 4.19622 9.14258 5.143C9.14258 6.08977 9.91009 6.85728 10.8569 6.85728Z" stroke="#222529" stroke-width="1.14286" stroke-linecap="round" stroke-linejoin="round"/>
<path id="Vector_4" d="M12.5711 10.8574H9.14258" stroke="#222529" stroke-width="1.14286" stroke-linecap="round" stroke-linejoin="round"/>
<path id="Vector_5" d="M5.71394 10.8574H3.42822" stroke="#222529" stroke-width="1.14286" stroke-linecap="round" stroke-linejoin="round"/>
<path id="Vector_6" d="M7.42864 12.5711C8.37542 12.5711 9.14293 11.8036 9.14293 10.8569C9.14293 9.91009 8.37542 9.14258 7.42864 9.14258C6.48187 9.14258 5.71436 9.91009 5.71436 10.8569C5.71436 11.8036 6.48187 12.5711 7.42864 12.5711Z" stroke="#222529" stroke-width="1.14286" stroke-linecap="round" stroke-linejoin="round"/>
</g>
</g>
<defs>
<clipPath id="clip0_1302_7297">
<rect width="16" height="16" fill="white"/>
</clipPath>
</defs>
</svg>
