<svg width="15" height="17" viewBox="0 0 15 17" fill="none" xmlns="http://www.w3.org/2000/svg">
<g id="Group">
<path id="Vector" d="M0.6427 4.5H14.357" stroke="#CFD4D9" stroke-width="1.14286" stroke-linecap="round" stroke-linejoin="round"/>
<path id="Vector_2" d="M2.35693 4.5H12.6426V14.7857C12.6426 15.0888 12.5222 15.3795 12.3079 15.5938C12.0936 15.8082 11.8029 15.9286 11.4998 15.9286H3.49979C3.19669 15.9286 2.906 15.8082 2.69167 15.5938C2.47734 15.3795 2.35693 15.0888 2.35693 14.7857V4.5Z" stroke="#CFD4D9" stroke-width="1.14286" stroke-linecap="round" stroke-linejoin="round"/>
<path id="Vector_3" d="M4.6427 4.5001V3.92868C4.6427 3.17091 4.94372 2.44419 5.47954 1.90837C6.01536 1.37255 6.74208 1.07153 7.49984 1.07153C8.2576 1.07153 8.98433 1.37255 9.52015 1.90837C10.056 2.44419 10.357 3.17091 10.357 3.92868V4.5001" stroke="#CFD4D9" stroke-width="1.14286" stroke-linecap="round" stroke-linejoin="round"/>
<path id="Vector_4" d="M5.78552 6.78589V13.0716" stroke="#CFD4D9" stroke-width="1.14286" stroke-linecap="round" stroke-linejoin="round"/>
<path id="Vector_5" d="M9.21411 6.78589V13.0716" stroke="#CFD4D9" stroke-width="1.14286" stroke-linecap="round" stroke-linejoin="round"/>
</g>
</svg>
