<svg width="25" height="24" viewBox="0 0 25 24" fill="none" xmlns="http://www.w3.org/2000/svg">
<g clip-path="url(#clip0_1022_11202)">
<mask id="mask0_1022_11202" style="mask-type:luminance" maskUnits="userSpaceOnUse" x="0" y="0" width="25" height="24">
<path d="M24.667 0H0.666992V24H24.667V0Z" fill="white"/>
</mask>
<g mask="url(#mask0_1022_11202)">
<path d="M0.666992 11.52C0.666992 6.08942 0.666992 3.37414 2.35406 1.68707C4.04113 0 6.75642 0 12.187 0H13.147C18.5776 0 21.2929 0 22.9799 1.68707C24.667 3.37414 24.667 6.08942 24.667 11.52V12.48C24.667 17.9106 24.667 20.6259 22.9799 22.3129C21.2929 24 18.5776 24 13.147 24H12.187C6.75642 24 4.04113 24 2.35406 22.3129C0.666992 20.6259 0.666992 17.9106 0.666992 12.48V11.52Z" fill="#0077FF"/>
<path d="M13.4368 17.2898C7.96678 17.2898 4.8468 13.5398 4.7168 7.2998H7.4568C7.54681 11.8798 9.56676 13.8198 11.1667 14.2198V7.2998H13.7468V11.2498C15.3268 11.0798 16.9866 9.2798 17.5466 7.2998H20.1267C19.6967 9.73981 17.8967 11.5398 16.6167 12.2798C17.8967 12.8798 19.9468 14.4498 20.7268 17.2898H17.8867C17.2767 15.3898 15.7568 13.9198 13.7468 13.7198V17.2898H13.4368Z" fill="white"/>
</g>
</g>
<defs>
<clipPath id="clip0_1022_11202">
<rect width="24.24" height="24" fill="white" transform="translate(0.546875)"/>
</clipPath>
</defs>
</svg>
