<svg width="24" height="25" viewBox="0 0 24 25" fill="none" xmlns="http://www.w3.org/2000/svg">
<g id="&#208;&#152;&#208;&#186;&#208;&#190;&#208;&#189;&#208;&#186;&#208;&#184; &#208;&#180;&#208;&#187;&#209;&#143; &#208;&#176;&#208;&#186;&#209;&#134;&#208;&#181;&#208;&#189;&#209;&#130;&#208;&#189;&#208;&#190;&#208;&#179;&#208;&#190; &#208;&#187;&#208;&#181;&#208;&#185;&#208;&#177;&#208;&#187;&#208;&#176;">
<path id="Vector" d="M6.42993 19.33L7.37993 11.165C7.41669 10.8486 7.56837 10.5566 7.80618 10.3446C8.04398 10.1326 8.35135 10.0153 8.66993 10.015H15.3949C15.7135 10.0153 16.0209 10.1326 16.2587 10.3446C16.4965 10.5566 16.6482 10.8486 16.6849 11.165L17.6349 19.33H6.42993Z" fill="#FF6242"/>
<path id="Vector_2" d="M6.42993 19.33L7.37993 11.165C7.41669 10.8486 7.56837 10.5566 7.80618 10.3446C8.04398 10.1326 8.35135 10.0153 8.66993 10.015H15.3949C15.7135 10.0153 16.0209 10.1326 16.2587 10.3446C16.4965 10.5566 16.6482 10.8486 16.6849 11.165L17.6349 19.33H6.42993Z" fill="#FF6242"/>
<path id="Vector_3" d="M8.45011 11.715H15.6151C15.8593 11.7125 16.1 11.774 16.3131 11.8933C16.5263 12.0126 16.7045 12.1855 16.8301 12.395L16.6851 11.165C16.6483 10.8486 16.4967 10.5566 16.2589 10.3446C16.0211 10.1326 15.7137 10.0153 15.3951 10.015H8.67011C8.35153 10.0153 8.04416 10.1326 7.80635 10.3446C7.56855 10.5566 7.41687 10.8486 7.38011 11.165L7.23511 12.395C7.36033 12.1852 7.53847 12.0119 7.7517 11.8926C7.96494 11.7733 8.20577 11.712 8.45011 11.715Z" fill="#FF866E"/>
<path id="Vector_4" d="M6.42993 19.33L7.37993 11.165C7.41669 10.8486 7.56837 10.5566 7.80618 10.3446C8.04398 10.1326 8.35135 10.0153 8.66993 10.015H15.3949C15.7135 10.0153 16.0209 10.1326 16.2587 10.3446C16.4965 10.5566 16.6482 10.8486 16.6849 11.165L17.6349 19.33H6.42993Z" stroke="#45413C" stroke-width="0.5" stroke-linecap="round" stroke-linejoin="round"/>
<path id="Vector_5" d="M5.68506 19.33H18.2501V21.28H5.68506V19.33Z" fill="#C0DCEB"/>
<path id="Vector_6" d="M17.8201 19.33H6.12006C6.00469 19.33 5.89405 19.3758 5.81247 19.4574C5.73089 19.539 5.68506 19.6496 5.68506 19.765V20.765C5.68506 20.6496 5.73089 20.539 5.81247 20.4574C5.89405 20.3758 6.00469 20.33 6.12006 20.33H17.8201C17.877 20.33 17.9333 20.3413 17.9858 20.3632C18.0383 20.3851 18.0859 20.4173 18.1259 20.4577C18.1659 20.4982 18.1975 20.5462 18.2188 20.5989C18.2401 20.6517 18.2507 20.7081 18.2501 20.765V19.78C18.2528 19.7219 18.2436 19.6638 18.2233 19.6093C18.2029 19.5548 18.1716 19.505 18.1314 19.4629C18.0912 19.4209 18.0429 19.3874 17.9894 19.3646C17.9358 19.3417 17.8783 19.33 17.8201 19.33Z" fill="#DAEDF7"/>
<path id="Vector_7" d="M5.68506 19.33H18.2501V21.28H5.68506V19.33Z" stroke="#45413C" stroke-width="0.5" stroke-linecap="round" stroke-linejoin="round"/>
<path id="Vector_8" d="M11.135 16.945H12.87V19.33H11.135V16.945Z" fill="#87898C"/>
<path id="Vector_9" d="M11.135 16.945H12.87V17.75H11.135V16.945Z" fill="#656769"/>
<path id="Vector_10" d="M11.135 16.945H12.87V19.33H11.135V16.945Z" stroke="#45413C" stroke-width="0.5" stroke-linecap="round" stroke-linejoin="round"/>
<path id="Vector_11" d="M12 13.48C11.6022 13.48 11.2206 13.6381 10.9393 13.9194C10.658 14.2007 10.5 14.5822 10.5 14.98V16.48C10.5 16.5941 10.5453 16.7035 10.6259 16.7841C10.7066 16.8647 10.816 16.91 10.93 16.91H13.1C13.214 16.91 13.3234 16.8647 13.4041 16.7841C13.4847 16.7035 13.53 16.5941 13.53 16.48V14.98C13.53 14.7805 13.4903 14.583 13.413 14.399C13.3358 14.215 13.2226 14.0483 13.0801 13.9086C12.9376 13.7689 12.7687 13.6591 12.5832 13.5855C12.3978 13.5119 12.1995 13.476 12 13.48Z" fill="#FFE500"/>
<path id="Vector_12" d="M12 13.48C11.6022 13.48 11.2206 13.6381 10.9393 13.9194C10.658 14.2007 10.5 14.5822 10.5 14.98V15.955C10.5 15.5532 10.6596 15.1679 10.9437 14.8838C11.2279 14.5997 11.6132 14.44 12.015 14.44C12.4168 14.44 12.8021 14.5997 13.0863 14.8838C13.3704 15.1679 13.53 15.5532 13.53 15.955V15C13.5327 14.7988 13.4949 14.5991 13.4189 14.4128C13.3428 14.2265 13.2301 14.0574 13.0873 13.9156C12.9446 13.7738 12.7747 13.6621 12.5879 13.5873C12.4011 13.5125 12.2012 13.476 12 13.48Z" fill="#FFF48C"/>
<path id="Vector_13" d="M12 13.48C11.6022 13.48 11.2206 13.6381 10.9393 13.9194C10.658 14.2007 10.5 14.5822 10.5 14.98V16.48C10.5 16.5941 10.5453 16.7035 10.6259 16.7841C10.7066 16.8647 10.816 16.91 10.93 16.91H13.1C13.214 16.91 13.3234 16.8647 13.4041 16.7841C13.4847 16.7035 13.53 16.5941 13.53 16.48V14.98C13.53 14.7805 13.4903 14.583 13.413 14.399C13.3358 14.215 13.2226 14.0483 13.0801 13.9086C12.9376 13.7689 12.7687 13.6591 12.5832 13.5855C12.3978 13.5119 12.1995 13.476 12 13.48Z" stroke="#45413C" stroke-width="0.5" stroke-linecap="round" stroke-linejoin="round"/>
<path id="Vector_14" d="M18.17 4.84002C18.1399 4.81288 18.1039 4.79327 18.0647 4.78284C18.0256 4.77241 17.9846 4.77144 17.945 4.78002C17.9048 4.78745 17.8668 4.80391 17.8339 4.82816C17.801 4.85242 17.774 4.88383 17.755 4.92002L16.11 8.05502C16.0815 8.10669 16.0714 8.16651 16.0814 8.22466C16.0914 8.28282 16.1209 8.33584 16.165 8.37502C16.2115 8.41111 16.2686 8.43069 16.3275 8.43069C16.3863 8.43069 16.4435 8.41111 16.49 8.37502L19.38 6.41002C19.4135 6.38807 19.4414 6.35852 19.4614 6.32377C19.4814 6.28902 19.4929 6.25005 19.495 6.21002C19.4986 6.17048 19.4933 6.13063 19.4795 6.09342C19.4656 6.0562 19.4436 6.02258 19.415 5.99502L18.17 4.84002Z" fill="#FFE500" stroke="#45413C" stroke-width="0.5" stroke-linecap="round" stroke-linejoin="round"/>
<path id="Vector_15" d="M11.1101 2.98004C11.0676 2.97918 11.0254 2.98769 10.9865 3.00498C10.9476 3.02226 10.913 3.04788 10.8851 3.08004C10.8589 3.11154 10.8407 3.14889 10.832 3.18893C10.8233 3.22896 10.8244 3.27051 10.8351 3.31004L11.7901 6.73504C11.8067 6.79353 11.8422 6.84488 11.891 6.88107C11.9399 6.91726 11.9993 6.93624 12.0601 6.93504C12.1213 6.93509 12.1809 6.91507 12.2297 6.87804C12.2784 6.84102 12.3137 6.78903 12.3301 6.73004L13.1651 3.32504C13.1746 3.28702 13.175 3.24729 13.1663 3.20908C13.1577 3.17086 13.1401 3.13522 13.1151 3.10504C13.0895 3.07247 13.0569 3.04611 13.0196 3.02793C12.9824 3.00975 12.9415 3.00021 12.9001 3.00004L11.1101 2.98004Z" fill="#FFE500" stroke="#45413C" stroke-width="0.5" stroke-linecap="round" stroke-linejoin="round"/>
<path id="Vector_16" d="M23.2099 11.75C23.2257 11.7876 23.2325 11.8283 23.2299 11.869C23.2274 11.9096 23.2155 11.9491 23.1952 11.9845C23.1748 12.0198 23.1467 12.0499 23.1128 12.0726C23.0789 12.0952 23.0403 12.1097 22.9999 12.115L19.4999 12.565C19.4336 12.5896 19.3603 12.5868 19.2961 12.5572C19.2318 12.5277 19.182 12.4738 19.1574 12.4075C19.1329 12.3412 19.1357 12.2679 19.1652 12.2037C19.1948 12.1394 19.2486 12.0896 19.3149 12.065L22.1699 10.065C22.2019 10.0417 22.2388 10.0259 22.2778 10.019C22.3168 10.0121 22.3569 10.0141 22.3949 10.025C22.4331 10.0364 22.4682 10.0563 22.4976 10.0831C22.5271 10.11 22.5501 10.1431 22.5649 10.18L23.2099 11.75Z" fill="#FFE500" stroke="#45413C" stroke-width="0.5" stroke-linecap="round" stroke-linejoin="round"/>
<path id="Vector_17" d="M23.0849 18C23.0758 18.0391 23.0574 18.0754 23.0313 18.1058C23.0052 18.1363 22.9721 18.16 22.9349 18.175C22.8989 18.1947 22.8585 18.205 22.8174 18.205C22.7763 18.205 22.7359 18.1947 22.6999 18.175L19.6299 16.405C19.5756 16.3771 19.5326 16.3313 19.5082 16.2753C19.4838 16.2194 19.4794 16.1567 19.4959 16.0979C19.5124 16.0391 19.5486 15.9878 19.5985 15.9527C19.6485 15.9175 19.709 15.9007 19.7699 15.905L23.2699 16.02C23.3096 16.0217 23.3485 16.0319 23.3839 16.05C23.4193 16.0682 23.4504 16.0937 23.4749 16.125C23.4979 16.1572 23.5138 16.1939 23.5215 16.2327C23.5293 16.2715 23.5287 16.3115 23.5199 16.35L23.0849 18Z" fill="#FFE500" stroke="#45413C" stroke-width="0.5" stroke-linecap="round" stroke-linejoin="round"/>
<path id="Vector_18" d="M5.83001 4.84002C5.86006 4.81288 5.89614 4.79327 5.93526 4.78284C5.97439 4.77241 6.01544 4.77144 6.05501 4.78002C6.09522 4.78745 6.13321 4.80391 6.16612 4.82816C6.19903 4.85242 6.22601 4.88383 6.24501 4.92002L7.89001 8.05502C7.91852 8.10669 7.9286 8.16651 7.9186 8.22466C7.90861 8.28282 7.87913 8.33584 7.83501 8.37502C7.78853 8.41111 7.73136 8.43069 7.67251 8.43069C7.61367 8.43069 7.5565 8.41111 7.51001 8.37502L4.62001 6.42002C4.58647 6.39807 4.55858 6.36852 4.5386 6.33377C4.51862 6.29902 4.50711 6.26005 4.50501 6.22002C4.50139 6.18048 4.5067 6.14063 4.52054 6.10342C4.53439 6.0662 4.55642 6.03258 4.58501 6.00502L5.83001 4.84002Z" fill="#FFE500" stroke="#45413C" stroke-width="0.5" stroke-linecap="round" stroke-linejoin="round"/>
<path id="Vector_19" d="M0.790024 11.75C0.770331 11.7861 0.76001 11.8265 0.76001 11.8675C0.76001 11.9086 0.770331 11.949 0.790024 11.985C0.809078 12.0213 0.836908 12.0522 0.870972 12.0749C0.905036 12.0976 0.944248 12.1114 0.985024 12.115L4.48502 12.565C4.55133 12.5896 4.62466 12.5868 4.68889 12.5572C4.75312 12.5277 4.80299 12.4738 4.82752 12.4075C4.85206 12.3412 4.84925 12.2679 4.81971 12.2037C4.79017 12.1394 4.73633 12.0896 4.67002 12.065L1.81502 10.065C1.78304 10.0417 1.74615 10.0259 1.70715 10.019C1.66816 10.0121 1.6281 10.0141 1.59002 10.025C1.55186 10.0364 1.51676 10.0563 1.48733 10.0831C1.4579 10.11 1.43489 10.1431 1.42002 10.18L0.790024 11.75Z" fill="#FFE500" stroke="#45413C" stroke-width="0.5" stroke-linecap="round" stroke-linejoin="round"/>
<path id="Vector_20" d="M0.914944 18C0.924071 18.0391 0.942466 18.0754 0.968573 18.1058C0.994681 18.1363 1.02774 18.16 1.06494 18.175C1.10098 18.1947 1.14138 18.205 1.18244 18.205C1.22351 18.205 1.26391 18.1947 1.29994 18.175L4.36994 16.405C4.42424 16.3771 4.46723 16.3313 4.49165 16.2753C4.51607 16.2194 4.52041 16.1567 4.50395 16.0979C4.48748 16.0391 4.45123 15.9878 4.4013 15.9527C4.35137 15.9175 4.29084 15.9007 4.22994 15.905L0.729944 16.02C0.690214 16.0217 0.651313 16.0319 0.615922 16.05C0.58053 16.0682 0.549491 16.0937 0.524944 16.125C0.501978 16.1572 0.486094 16.1939 0.478338 16.2327C0.470581 16.2715 0.471129 16.3115 0.479944 16.35L0.914944 18Z" fill="#FFE500" stroke="#45413C" stroke-width="0.5" stroke-linecap="round" stroke-linejoin="round"/>
<path id="Vector_21" opacity="0.15" d="M5 21.53C5 21.6285 5.18106 21.726 5.53284 21.817C5.88463 21.908 6.40024 21.9907 7.05025 22.0604C7.70026 22.13 8.47194 22.1852 9.32122 22.2229C10.1705 22.2606 11.0807 22.28 12 22.28C12.9193 22.28 13.8295 22.2606 14.6788 22.2229C15.5281 22.1852 16.2997 22.13 16.9497 22.0604C17.5998 21.9907 18.1154 21.908 18.4672 21.817C18.8189 21.726 19 21.6285 19 21.53C19 21.4315 18.8189 21.334 18.4672 21.243C18.1154 21.152 17.5998 21.0693 16.9497 20.9997C16.2997 20.9301 15.5281 20.8748 14.6788 20.8371C13.8295 20.7994 12.9193 20.78 12 20.78C11.0807 20.78 10.1705 20.7994 9.32122 20.8371C8.47194 20.8748 7.70026 20.9301 7.05025 20.9997C6.40024 21.0693 5.88463 21.152 5.53284 21.243C5.18106 21.334 5 21.4315 5 21.53Z" fill="#45413C"/>
</g>
</svg>
