<svg width="24" height="24" viewBox="0 0 24 24" fill="none" xmlns="http://www.w3.org/2000/svg">
<path opacity="0.15" d="M6.25 21.5C6.25 21.6989 6.8558 21.8897 7.93414 22.0303C9.01247 22.171 10.475 22.25 12 22.25C13.525 22.25 14.9875 22.171 16.0659 22.0303C17.1442 21.8897 17.75 21.6989 17.75 21.5C17.75 21.3011 17.1442 21.1103 16.0659 20.9697C14.9875 20.829 13.525 20.75 12 20.75C10.475 20.75 9.01247 20.829 7.93414 20.9697C6.8558 21.1103 6.25 21.3011 6.25 21.5Z" fill="#45413C"/>
<path d="M7.25 6H16.75V18H7.25V6Z" fill="#DAEDF7" stroke="#45413C" stroke-width="0.5" stroke-linecap="round" stroke-linejoin="round"/>
<path d="M8.5 3H15.5V21H8.5V3Z" fill="#656769"/>
<path d="M14.68 3.00002H9.32002C9.21215 2.99935 9.10522 3.02011 9.00543 3.06108C8.90564 3.10206 8.81498 3.16243 8.73871 3.23871C8.66243 3.31498 8.60206 3.40564 8.56108 3.50543C8.52011 3.60522 8.49935 3.71215 8.50002 3.82002V5.07002C8.49935 4.96215 8.52011 4.85522 8.56108 4.75543C8.60206 4.65564 8.66243 4.56498 8.73871 4.48871C8.81498 4.41243 8.90564 4.35206 9.00543 4.31108C9.10522 4.27011 9.21215 4.24935 9.32002 4.25002H14.68C14.7879 4.24935 14.8948 4.27011 14.9946 4.31108C15.0944 4.35206 15.185 4.41243 15.2613 4.48871C15.3376 4.56498 15.398 4.65564 15.4389 4.75543C15.4799 4.85522 15.5007 4.96215 15.5 5.07002V3.82002C15.5007 3.71215 15.4799 3.60522 15.4389 3.50543C15.398 3.40564 15.3376 3.31498 15.2613 3.23871C15.185 3.16243 15.0944 3.10206 14.9946 3.06108C14.8948 3.02011 14.7879 2.99935 14.68 3.00002Z" fill="#87898C"/>
<path d="M8.5 3H15.5V21H8.5V3Z" stroke="#45413C" stroke-width="0.5" stroke-linecap="round" stroke-linejoin="round"/>
<path d="M17.5 10.5H18.5C18.6326 10.5 18.7598 10.5527 18.8536 10.6464C18.9473 10.7402 19 10.8674 19 11V13C19 13.1326 18.9473 13.2598 18.8536 13.3536C18.7598 13.4473 18.6326 13.5 18.5 13.5H17.5V10.5Z" fill="#DAEDF7" stroke="#45413C" stroke-width="0.5" stroke-linecap="round" stroke-linejoin="round"/>
<path d="M6 12C6 13.5913 6.63214 15.1174 7.75736 16.2426C8.88258 17.3679 10.4087 18 12 18C13.5913 18 15.1174 17.3679 16.2426 16.2426C17.3679 15.1174 18 13.5913 18 12C18 10.4087 17.3679 8.88258 16.2426 7.75736C15.1174 6.63214 13.5913 6 12 6C10.4087 6 8.88258 6.63214 7.75736 7.75736C6.63214 8.88258 6 10.4087 6 12Z" fill="#DAEDF7"/>
<path d="M12 7.31C13.4772 7.31102 14.9021 7.85692 16.0018 8.84316C17.1015 9.8294 17.7987 11.1867 17.96 12.655C17.9859 12.4376 17.9993 12.2189 18 12C18 10.4087 17.3679 8.88258 16.2426 7.75736C15.1174 6.63214 13.5913 6 12 6C10.4087 6 8.88258 6.63214 7.75736 7.75736C6.63214 8.88258 6 10.4087 6 12C6.00072 12.2189 6.01408 12.4376 6.04 12.655C6.20126 11.1867 6.89851 9.8294 7.99823 8.84316C9.09794 7.85692 10.5228 7.31102 12 7.31Z" fill="#E8F4FA"/>
<path d="M6 12C6 13.5913 6.63214 15.1174 7.75736 16.2426C8.88258 17.3679 10.4087 18 12 18C13.5913 18 15.1174 17.3679 16.2426 16.2426C17.3679 15.1174 18 13.5913 18 12C18 10.4087 17.3679 8.88258 16.2426 7.75736C15.1174 6.63214 13.5913 6 12 6C10.4087 6 8.88258 6.63214 7.75736 7.75736C6.63214 8.88258 6 10.4087 6 12Z" stroke="#45413C" stroke-width="0.5" stroke-linecap="round" stroke-linejoin="round"/>
<path d="M7.75 12C7.75 12.5581 7.85993 13.1108 8.07351 13.6264C8.28709 14.142 8.60015 14.6106 8.9948 15.0052C9.38944 15.3999 9.85796 15.7129 10.3736 15.9265C10.8892 16.1401 11.4419 16.25 12 16.25C12.5581 16.25 13.1108 16.1401 13.6264 15.9265C14.142 15.7129 14.6106 15.3999 15.0052 15.0052C15.3999 14.6106 15.7129 14.142 15.9265 13.6264C16.1401 13.1108 16.25 12.5581 16.25 12C16.25 11.4419 16.1401 10.8892 15.9265 10.3736C15.7129 9.85796 15.3999 9.38944 15.0052 8.9948C14.6106 8.60015 14.142 8.28709 13.6264 8.07351C13.1108 7.85993 12.5581 7.75 12 7.75C11.4419 7.75 10.8892 7.85993 10.3736 8.07351C9.85796 8.28709 9.38944 8.60015 8.9948 8.9948C8.60015 9.38944 8.28709 9.85796 8.07351 10.3736C7.85993 10.8892 7.75 11.4419 7.75 12Z" fill="white"/>
<path d="M12 8.75C13.0402 8.7512 14.0439 9.1334 14.8215 9.82436C15.599 10.5153 16.0965 11.4672 16.22 12.5C16.22 12.335 16.25 12.17 16.25 12C16.25 10.8728 15.8022 9.79183 15.0052 8.9948C14.2082 8.19777 13.1272 7.75 12 7.75C10.8728 7.75 9.79183 8.19777 8.9948 8.9948C8.19777 9.79183 7.75 10.8728 7.75 12C7.75 12.17 7.75 12.335 7.78 12.5C7.90345 11.4672 8.40097 10.5153 9.17853 9.82436C9.95608 9.1334 10.9598 8.7512 12 8.75Z" fill="#E0E0E0"/>
<path d="M7.75 12C7.75 12.5581 7.85993 13.1108 8.07351 13.6264C8.28709 14.142 8.60015 14.6106 8.9948 15.0052C9.38944 15.3999 9.85796 15.7129 10.3736 15.9265C10.8892 16.1401 11.4419 16.25 12 16.25C12.5581 16.25 13.1108 16.1401 13.6264 15.9265C14.142 15.7129 14.6106 15.3999 15.0052 15.0052C15.3999 14.6106 15.7129 14.142 15.9265 13.6264C16.1401 13.1108 16.25 12.5581 16.25 12C16.25 11.4419 16.1401 10.8892 15.9265 10.3736C15.7129 9.85796 15.3999 9.38944 15.0052 8.9948C14.6106 8.60015 14.142 8.28709 13.6264 8.07351C13.1108 7.85993 12.5581 7.75 12 7.75C11.4419 7.75 10.8892 7.85993 10.3736 8.07351C9.85796 8.28709 9.38944 8.60015 8.9948 8.9948C8.60015 9.38944 8.28709 9.85796 8.07351 10.3736C7.85993 10.8892 7.75 11.4419 7.75 12Z" stroke="#45413C" stroke-width="0.5" stroke-linecap="round" stroke-linejoin="round"/>
<path d="M12 9.25V12L13.5 11.25" stroke="#45413C" stroke-width="0.5" stroke-linecap="round" stroke-linejoin="round"/>
<path d="M12 7.75V8.25" stroke="#45413C" stroke-width="0.5" stroke-linecap="round" stroke-linejoin="round"/>
<path d="M12 15.75V16.25" stroke="#45413C" stroke-width="0.5" stroke-linecap="round" stroke-linejoin="round"/>
<path d="M9.875 8.31982L10.125 8.74982" stroke="#45413C" stroke-width="0.5" stroke-linecap="round" stroke-linejoin="round"/>
<path d="M13.875 15.25L14.125 15.68" stroke="#45413C" stroke-width="0.5" stroke-linecap="round" stroke-linejoin="round"/>
<path d="M8.31982 9.875L8.74982 10.125" stroke="#45413C" stroke-width="0.5" stroke-linecap="round" stroke-linejoin="round"/>
<path d="M15.25 13.875L15.68 14.125" stroke="#45413C" stroke-width="0.5" stroke-linecap="round" stroke-linejoin="round"/>
<path d="M7.75 12H8.25" stroke="#45413C" stroke-width="0.5" stroke-linecap="round" stroke-linejoin="round"/>
<path d="M15.75 12H16.25" stroke="#45413C" stroke-width="0.5" stroke-linecap="round" stroke-linejoin="round"/>
<path d="M8.31982 14.125L8.74982 13.875" stroke="#45413C" stroke-width="0.5" stroke-linecap="round" stroke-linejoin="round"/>
<path d="M15.25 10.125L15.68 9.875" stroke="#45413C" stroke-width="0.5" stroke-linecap="round" stroke-linejoin="round"/>
<path d="M9.875 15.68L10.125 15.25" stroke="#45413C" stroke-width="0.5" stroke-linecap="round" stroke-linejoin="round"/>
<path d="M13.875 8.74982L14.125 8.31982" stroke="#45413C" stroke-width="0.5" stroke-linecap="round" stroke-linejoin="round"/>
</svg>
