<svg width="24" height="24" viewBox="0 0 24 24" fill="none" xmlns="http://www.w3.org/2000/svg">
<g clip-path="url(#clip0_1022_11196)">
<path d="M12 23.9755C18.6139 23.9755 23.9755 18.6139 23.9755 12C23.9755 5.38605 18.6139 0.0244141 12 0.0244141C5.38605 0.0244141 0.0244141 5.38605 0.0244141 12C0.0244141 18.6139 5.38605 23.9755 12 23.9755Z" fill="#FC3F1D"/>
<path d="M16.3334 19.5182H13.7046V6.51602H12.5334C10.3868 6.51602 9.26233 7.58936 9.26233 9.19158C9.26233 11.0094 10.0379 11.8516 11.6423 12.9249L12.9646 13.816L9.16456 19.516H6.33789L9.75789 14.4271C7.79122 13.0227 6.68456 11.6516 6.68456 9.33825C6.68456 6.44714 8.70011 4.48047 12.5157 4.48047H16.3157V19.5138H16.3334V19.5182Z" fill="white"/>
</g>
<defs>
<clipPath id="clip0_1022_11196">
<rect width="24" height="24" fill="white"/>
</clipPath>
</defs>
</svg>
